<?xml version="1.0" encoding="utf-8" standalone="no"?>
<!DOCTYPE svg PUBLIC "-//W3C//DTD SVG 1.1//EN"
  "http://www.w3.org/Graphics/SVG/1.1/DTD/svg11.dtd">
<svg xmlns:xlink="http://www.w3.org/1999/xlink" width="1152pt" height="576pt" viewBox="0 0 1152 576" xmlns="http://www.w3.org/2000/svg" version="1.1">
 <metadata>
  <rdf:RDF xmlns:dc="http://purl.org/dc/elements/1.1/" xmlns:cc="http://creativecommons.org/ns#" xmlns:rdf="http://www.w3.org/1999/02/22-rdf-syntax-ns#">
   <cc:Work>
    <dc:type rdf:resource="http://purl.org/dc/dcmitype/StillImage"/>
    <dc:date>2023-07-16T19:39:15.517755</dc:date>
    <dc:format>image/svg+xml</dc:format>
    <dc:creator>
     <cc:Agent>
      <dc:title>Matplotlib v3.7.1, https://matplotlib.org/</dc:title>
     </cc:Agent>
    </dc:creator>
   </cc:Work>
  </rdf:RDF>
 </metadata>
 <defs>
  <style type="text/css">*{stroke-linejoin: round; stroke-linecap: butt}</style>
 </defs>
 <g id="figure_1">
  <g id="patch_1">
   <path d="M 0 576 
L 1152 576 
L 1152 0 
L 0 0 
z
" style="fill: #ffffff"/>
  </g>
  <g id="axes_1">
   <g id="patch_2">
    <path d="M 144 512.64 
L 1036.8 512.64 
L 1036.8 69.12 
L 144 69.12 
z
" style="fill: #ffffff"/>
   </g>
   <g id="matplotlib.axis_1">
    <g id="xtick_1">
     <g id="line2d_1">
      <defs>
       <path id="mebc83b6e65" d="M 0 0 
L 0 3.5 
" style="stroke: #000000; stroke-width: 0.8"/>
      </defs>
      <g>
       <use xlink:href="#mebc83b6e65" x="184.581818" y="512.64" style="stroke: #000000; stroke-width: 0.8"/>
      </g>
     </g>
     <g id="text_1">
      <!-- 0 -->
      <g transform="translate(181.400568 527.238438) scale(0.1 -0.1)">
       <defs>
        <path id="DejaVuSans-30" d="M 2034 4250 
Q 1547 4250 1301 3770 
Q 1056 3291 1056 2328 
Q 1056 1369 1301 889 
Q 1547 409 2034 409 
Q 2525 409 2770 889 
Q 3016 1369 3016 2328 
Q 3016 3291 2770 3770 
Q 2525 4250 2034 4250 
z
M 2034 4750 
Q 2819 4750 3233 4129 
Q 3647 3509 3647 2328 
Q 3647 1150 3233 529 
Q 2819 -91 2034 -91 
Q 1250 -91 836 529 
Q 422 1150 422 2328 
Q 422 3509 836 4129 
Q 1250 4750 2034 4750 
z
" transform="scale(0.015625)"/>
       </defs>
       <use xlink:href="#DejaVuSans-30"/>
      </g>
     </g>
    </g>
    <g id="xtick_2">
     <g id="line2d_2">
      <g>
       <use xlink:href="#mebc83b6e65" x="307.781023" y="512.64" style="stroke: #000000; stroke-width: 0.8"/>
      </g>
     </g>
     <g id="text_2">
      <!-- 500 -->
      <g transform="translate(298.237273 527.238438) scale(0.1 -0.1)">
       <defs>
        <path id="DejaVuSans-35" d="M 691 4666 
L 3169 4666 
L 3169 4134 
L 1269 4134 
L 1269 2991 
Q 1406 3038 1543 3061 
Q 1681 3084 1819 3084 
Q 2600 3084 3056 2656 
Q 3513 2228 3513 1497 
Q 3513 744 3044 326 
Q 2575 -91 1722 -91 
Q 1428 -91 1123 -41 
Q 819 9 494 109 
L 494 744 
Q 775 591 1075 516 
Q 1375 441 1709 441 
Q 2250 441 2565 725 
Q 2881 1009 2881 1497 
Q 2881 1984 2565 2268 
Q 2250 2553 1709 2553 
Q 1456 2553 1204 2497 
Q 953 2441 691 2322 
L 691 4666 
z
" transform="scale(0.015625)"/>
       </defs>
       <use xlink:href="#DejaVuSans-35"/>
       <use xlink:href="#DejaVuSans-30" x="63.623047"/>
       <use xlink:href="#DejaVuSans-30" x="127.246094"/>
      </g>
     </g>
    </g>
    <g id="xtick_3">
     <g id="line2d_3">
      <g>
       <use xlink:href="#mebc83b6e65" x="430.980229" y="512.64" style="stroke: #000000; stroke-width: 0.8"/>
      </g>
     </g>
     <g id="text_3">
      <!-- 1000 -->
      <g transform="translate(418.255229 527.238438) scale(0.1 -0.1)">
       <defs>
        <path id="DejaVuSans-31" d="M 794 531 
L 1825 531 
L 1825 4091 
L 703 3866 
L 703 4441 
L 1819 4666 
L 2450 4666 
L 2450 531 
L 3481 531 
L 3481 0 
L 794 0 
L 794 531 
z
" transform="scale(0.015625)"/>
       </defs>
       <use xlink:href="#DejaVuSans-31"/>
       <use xlink:href="#DejaVuSans-30" x="63.623047"/>
       <use xlink:href="#DejaVuSans-30" x="127.246094"/>
       <use xlink:href="#DejaVuSans-30" x="190.869141"/>
      </g>
     </g>
    </g>
    <g id="xtick_4">
     <g id="line2d_4">
      <g>
       <use xlink:href="#mebc83b6e65" x="554.179434" y="512.64" style="stroke: #000000; stroke-width: 0.8"/>
      </g>
     </g>
     <g id="text_4">
      <!-- 1500 -->
      <g transform="translate(541.454434 527.238438) scale(0.1 -0.1)">
       <use xlink:href="#DejaVuSans-31"/>
       <use xlink:href="#DejaVuSans-35" x="63.623047"/>
       <use xlink:href="#DejaVuSans-30" x="127.246094"/>
       <use xlink:href="#DejaVuSans-30" x="190.869141"/>
      </g>
     </g>
    </g>
    <g id="xtick_5">
     <g id="line2d_5">
      <g>
       <use xlink:href="#mebc83b6e65" x="677.378639" y="512.64" style="stroke: #000000; stroke-width: 0.8"/>
      </g>
     </g>
     <g id="text_5">
      <!-- 2000 -->
      <g transform="translate(664.653639 527.238438) scale(0.1 -0.1)">
       <defs>
        <path id="DejaVuSans-32" d="M 1228 531 
L 3431 531 
L 3431 0 
L 469 0 
L 469 531 
Q 828 903 1448 1529 
Q 2069 2156 2228 2338 
Q 2531 2678 2651 2914 
Q 2772 3150 2772 3378 
Q 2772 3750 2511 3984 
Q 2250 4219 1831 4219 
Q 1534 4219 1204 4116 
Q 875 4013 500 3803 
L 500 4441 
Q 881 4594 1212 4672 
Q 1544 4750 1819 4750 
Q 2544 4750 2975 4387 
Q 3406 4025 3406 3419 
Q 3406 3131 3298 2873 
Q 3191 2616 2906 2266 
Q 2828 2175 2409 1742 
Q 1991 1309 1228 531 
z
" transform="scale(0.015625)"/>
       </defs>
       <use xlink:href="#DejaVuSans-32"/>
       <use xlink:href="#DejaVuSans-30" x="63.623047"/>
       <use xlink:href="#DejaVuSans-30" x="127.246094"/>
       <use xlink:href="#DejaVuSans-30" x="190.869141"/>
      </g>
     </g>
    </g>
    <g id="xtick_6">
     <g id="line2d_6">
      <g>
       <use xlink:href="#mebc83b6e65" x="800.577844" y="512.64" style="stroke: #000000; stroke-width: 0.8"/>
      </g>
     </g>
     <g id="text_6">
      <!-- 2500 -->
      <g transform="translate(787.852844 527.238438) scale(0.1 -0.1)">
       <use xlink:href="#DejaVuSans-32"/>
       <use xlink:href="#DejaVuSans-35" x="63.623047"/>
       <use xlink:href="#DejaVuSans-30" x="127.246094"/>
       <use xlink:href="#DejaVuSans-30" x="190.869141"/>
      </g>
     </g>
    </g>
    <g id="xtick_7">
     <g id="line2d_7">
      <g>
       <use xlink:href="#mebc83b6e65" x="923.777049" y="512.64" style="stroke: #000000; stroke-width: 0.8"/>
      </g>
     </g>
     <g id="text_7">
      <!-- 3000 -->
      <g transform="translate(911.052049 527.238438) scale(0.1 -0.1)">
       <defs>
        <path id="DejaVuSans-33" d="M 2597 2516 
Q 3050 2419 3304 2112 
Q 3559 1806 3559 1356 
Q 3559 666 3084 287 
Q 2609 -91 1734 -91 
Q 1441 -91 1130 -33 
Q 819 25 488 141 
L 488 750 
Q 750 597 1062 519 
Q 1375 441 1716 441 
Q 2309 441 2620 675 
Q 2931 909 2931 1356 
Q 2931 1769 2642 2001 
Q 2353 2234 1838 2234 
L 1294 2234 
L 1294 2753 
L 1863 2753 
Q 2328 2753 2575 2939 
Q 2822 3125 2822 3475 
Q 2822 3834 2567 4026 
Q 2313 4219 1838 4219 
Q 1578 4219 1281 4162 
Q 984 4106 628 3988 
L 628 4550 
Q 988 4650 1302 4700 
Q 1616 4750 1894 4750 
Q 2613 4750 3031 4423 
Q 3450 4097 3450 3541 
Q 3450 3153 3228 2886 
Q 3006 2619 2597 2516 
z
" transform="scale(0.015625)"/>
       </defs>
       <use xlink:href="#DejaVuSans-33"/>
       <use xlink:href="#DejaVuSans-30" x="63.623047"/>
       <use xlink:href="#DejaVuSans-30" x="127.246094"/>
       <use xlink:href="#DejaVuSans-30" x="190.869141"/>
      </g>
     </g>
    </g>
    <g id="text_8">
     <!-- Frame number -->
     <g transform="translate(553.717188 540.916563) scale(0.1 -0.1)">
      <defs>
       <path id="DejaVuSans-46" d="M 628 4666 
L 3309 4666 
L 3309 4134 
L 1259 4134 
L 1259 2759 
L 3109 2759 
L 3109 2228 
L 1259 2228 
L 1259 0 
L 628 0 
L 628 4666 
z
" transform="scale(0.015625)"/>
       <path id="DejaVuSans-72" d="M 2631 2963 
Q 2534 3019 2420 3045 
Q 2306 3072 2169 3072 
Q 1681 3072 1420 2755 
Q 1159 2438 1159 1844 
L 1159 0 
L 581 0 
L 581 3500 
L 1159 3500 
L 1159 2956 
Q 1341 3275 1631 3429 
Q 1922 3584 2338 3584 
Q 2397 3584 2469 3576 
Q 2541 3569 2628 3553 
L 2631 2963 
z
" transform="scale(0.015625)"/>
       <path id="DejaVuSans-61" d="M 2194 1759 
Q 1497 1759 1228 1600 
Q 959 1441 959 1056 
Q 959 750 1161 570 
Q 1363 391 1709 391 
Q 2188 391 2477 730 
Q 2766 1069 2766 1631 
L 2766 1759 
L 2194 1759 
z
M 3341 1997 
L 3341 0 
L 2766 0 
L 2766 531 
Q 2569 213 2275 61 
Q 1981 -91 1556 -91 
Q 1019 -91 701 211 
Q 384 513 384 1019 
Q 384 1609 779 1909 
Q 1175 2209 1959 2209 
L 2766 2209 
L 2766 2266 
Q 2766 2663 2505 2880 
Q 2244 3097 1772 3097 
Q 1472 3097 1187 3025 
Q 903 2953 641 2809 
L 641 3341 
Q 956 3463 1253 3523 
Q 1550 3584 1831 3584 
Q 2591 3584 2966 3190 
Q 3341 2797 3341 1997 
z
" transform="scale(0.015625)"/>
       <path id="DejaVuSans-6d" d="M 3328 2828 
Q 3544 3216 3844 3400 
Q 4144 3584 4550 3584 
Q 5097 3584 5394 3201 
Q 5691 2819 5691 2113 
L 5691 0 
L 5113 0 
L 5113 2094 
Q 5113 2597 4934 2840 
Q 4756 3084 4391 3084 
Q 3944 3084 3684 2787 
Q 3425 2491 3425 1978 
L 3425 0 
L 2847 0 
L 2847 2094 
Q 2847 2600 2669 2842 
Q 2491 3084 2119 3084 
Q 1678 3084 1418 2786 
Q 1159 2488 1159 1978 
L 1159 0 
L 581 0 
L 581 3500 
L 1159 3500 
L 1159 2956 
Q 1356 3278 1631 3431 
Q 1906 3584 2284 3584 
Q 2666 3584 2933 3390 
Q 3200 3197 3328 2828 
z
" transform="scale(0.015625)"/>
       <path id="DejaVuSans-65" d="M 3597 1894 
L 3597 1613 
L 953 1613 
Q 991 1019 1311 708 
Q 1631 397 2203 397 
Q 2534 397 2845 478 
Q 3156 559 3463 722 
L 3463 178 
Q 3153 47 2828 -22 
Q 2503 -91 2169 -91 
Q 1331 -91 842 396 
Q 353 884 353 1716 
Q 353 2575 817 3079 
Q 1281 3584 2069 3584 
Q 2775 3584 3186 3129 
Q 3597 2675 3597 1894 
z
M 3022 2063 
Q 3016 2534 2758 2815 
Q 2500 3097 2075 3097 
Q 1594 3097 1305 2825 
Q 1016 2553 972 2059 
L 3022 2063 
z
" transform="scale(0.015625)"/>
       <path id="DejaVuSans-20" transform="scale(0.015625)"/>
       <path id="DejaVuSans-6e" d="M 3513 2113 
L 3513 0 
L 2938 0 
L 2938 2094 
Q 2938 2591 2744 2837 
Q 2550 3084 2163 3084 
Q 1697 3084 1428 2787 
Q 1159 2491 1159 1978 
L 1159 0 
L 581 0 
L 581 3500 
L 1159 3500 
L 1159 2956 
Q 1366 3272 1645 3428 
Q 1925 3584 2291 3584 
Q 2894 3584 3203 3211 
Q 3513 2838 3513 2113 
z
" transform="scale(0.015625)"/>
       <path id="DejaVuSans-75" d="M 544 1381 
L 544 3500 
L 1119 3500 
L 1119 1403 
Q 1119 906 1312 657 
Q 1506 409 1894 409 
Q 2359 409 2629 706 
Q 2900 1003 2900 1516 
L 2900 3500 
L 3475 3500 
L 3475 0 
L 2900 0 
L 2900 538 
Q 2691 219 2414 64 
Q 2138 -91 1772 -91 
Q 1169 -91 856 284 
Q 544 659 544 1381 
z
M 1991 3584 
L 1991 3584 
z
" transform="scale(0.015625)"/>
       <path id="DejaVuSans-62" d="M 3116 1747 
Q 3116 2381 2855 2742 
Q 2594 3103 2138 3103 
Q 1681 3103 1420 2742 
Q 1159 2381 1159 1747 
Q 1159 1113 1420 752 
Q 1681 391 2138 391 
Q 2594 391 2855 752 
Q 3116 1113 3116 1747 
z
M 1159 2969 
Q 1341 3281 1617 3432 
Q 1894 3584 2278 3584 
Q 2916 3584 3314 3078 
Q 3713 2572 3713 1747 
Q 3713 922 3314 415 
Q 2916 -91 2278 -91 
Q 1894 -91 1617 61 
Q 1341 213 1159 525 
L 1159 0 
L 581 0 
L 581 4863 
L 1159 4863 
L 1159 2969 
z
" transform="scale(0.015625)"/>
      </defs>
      <use xlink:href="#DejaVuSans-46"/>
      <use xlink:href="#DejaVuSans-72" x="50.269531"/>
      <use xlink:href="#DejaVuSans-61" x="91.382812"/>
      <use xlink:href="#DejaVuSans-6d" x="152.662109"/>
      <use xlink:href="#DejaVuSans-65" x="250.074219"/>
      <use xlink:href="#DejaVuSans-20" x="311.597656"/>
      <use xlink:href="#DejaVuSans-6e" x="343.384766"/>
      <use xlink:href="#DejaVuSans-75" x="406.763672"/>
      <use xlink:href="#DejaVuSans-6d" x="470.142578"/>
      <use xlink:href="#DejaVuSans-62" x="567.554688"/>
      <use xlink:href="#DejaVuSans-65" x="631.03125"/>
      <use xlink:href="#DejaVuSans-72" x="692.554688"/>
     </g>
    </g>
   </g>
   <g id="matplotlib.axis_2">
    <g id="ytick_1">
     <g id="line2d_8">
      <defs>
       <path id="ma2816ea239" d="M 0 0 
L -3.5 0 
" style="stroke: #000000; stroke-width: 0.8"/>
      </defs>
      <g>
       <use xlink:href="#ma2816ea239" x="144" y="492.48" style="stroke: #000000; stroke-width: 0.8"/>
      </g>
     </g>
     <g id="text_9">
      <!-- 0.00 -->
      <g transform="translate(114.734375 496.279219) scale(0.1 -0.1)">
       <defs>
        <path id="DejaVuSans-2e" d="M 684 794 
L 1344 794 
L 1344 0 
L 684 0 
L 684 794 
z
" transform="scale(0.015625)"/>
       </defs>
       <use xlink:href="#DejaVuSans-30"/>
       <use xlink:href="#DejaVuSans-2e" x="63.623047"/>
       <use xlink:href="#DejaVuSans-30" x="95.410156"/>
       <use xlink:href="#DejaVuSans-30" x="159.033203"/>
      </g>
     </g>
    </g>
    <g id="ytick_2">
     <g id="line2d_9">
      <g>
       <use xlink:href="#ma2816ea239" x="144" y="437.624887" style="stroke: #000000; stroke-width: 0.8"/>
      </g>
     </g>
     <g id="text_10">
      <!-- 0.25 -->
      <g transform="translate(114.734375 441.424106) scale(0.1 -0.1)">
       <use xlink:href="#DejaVuSans-30"/>
       <use xlink:href="#DejaVuSans-2e" x="63.623047"/>
       <use xlink:href="#DejaVuSans-32" x="95.410156"/>
       <use xlink:href="#DejaVuSans-35" x="159.033203"/>
      </g>
     </g>
    </g>
    <g id="ytick_3">
     <g id="line2d_10">
      <g>
       <use xlink:href="#ma2816ea239" x="144" y="382.769774" style="stroke: #000000; stroke-width: 0.8"/>
      </g>
     </g>
     <g id="text_11">
      <!-- 0.50 -->
      <g transform="translate(114.734375 386.568993) scale(0.1 -0.1)">
       <use xlink:href="#DejaVuSans-30"/>
       <use xlink:href="#DejaVuSans-2e" x="63.623047"/>
       <use xlink:href="#DejaVuSans-35" x="95.410156"/>
       <use xlink:href="#DejaVuSans-30" x="159.033203"/>
      </g>
     </g>
    </g>
    <g id="ytick_4">
     <g id="line2d_11">
      <g>
       <use xlink:href="#ma2816ea239" x="144" y="327.914661" style="stroke: #000000; stroke-width: 0.8"/>
      </g>
     </g>
     <g id="text_12">
      <!-- 0.75 -->
      <g transform="translate(114.734375 331.71388) scale(0.1 -0.1)">
       <defs>
        <path id="DejaVuSans-37" d="M 525 4666 
L 3525 4666 
L 3525 4397 
L 1831 0 
L 1172 0 
L 2766 4134 
L 525 4134 
L 525 4666 
z
" transform="scale(0.015625)"/>
       </defs>
       <use xlink:href="#DejaVuSans-30"/>
       <use xlink:href="#DejaVuSans-2e" x="63.623047"/>
       <use xlink:href="#DejaVuSans-37" x="95.410156"/>
       <use xlink:href="#DejaVuSans-35" x="159.033203"/>
      </g>
     </g>
    </g>
    <g id="ytick_5">
     <g id="line2d_12">
      <g>
       <use xlink:href="#ma2816ea239" x="144" y="273.059549" style="stroke: #000000; stroke-width: 0.8"/>
      </g>
     </g>
     <g id="text_13">
      <!-- 1.00 -->
      <g transform="translate(114.734375 276.858767) scale(0.1 -0.1)">
       <use xlink:href="#DejaVuSans-31"/>
       <use xlink:href="#DejaVuSans-2e" x="63.623047"/>
       <use xlink:href="#DejaVuSans-30" x="95.410156"/>
       <use xlink:href="#DejaVuSans-30" x="159.033203"/>
      </g>
     </g>
    </g>
    <g id="ytick_6">
     <g id="line2d_13">
      <g>
       <use xlink:href="#ma2816ea239" x="144" y="218.204436" style="stroke: #000000; stroke-width: 0.8"/>
      </g>
     </g>
     <g id="text_14">
      <!-- 1.25 -->
      <g transform="translate(114.734375 222.003655) scale(0.1 -0.1)">
       <use xlink:href="#DejaVuSans-31"/>
       <use xlink:href="#DejaVuSans-2e" x="63.623047"/>
       <use xlink:href="#DejaVuSans-32" x="95.410156"/>
       <use xlink:href="#DejaVuSans-35" x="159.033203"/>
      </g>
     </g>
    </g>
    <g id="ytick_7">
     <g id="line2d_14">
      <g>
       <use xlink:href="#ma2816ea239" x="144" y="163.349323" style="stroke: #000000; stroke-width: 0.8"/>
      </g>
     </g>
     <g id="text_15">
      <!-- 1.50 -->
      <g transform="translate(114.734375 167.148542) scale(0.1 -0.1)">
       <use xlink:href="#DejaVuSans-31"/>
       <use xlink:href="#DejaVuSans-2e" x="63.623047"/>
       <use xlink:href="#DejaVuSans-35" x="95.410156"/>
       <use xlink:href="#DejaVuSans-30" x="159.033203"/>
      </g>
     </g>
    </g>
    <g id="ytick_8">
     <g id="line2d_15">
      <g>
       <use xlink:href="#ma2816ea239" x="144" y="108.49421" style="stroke: #000000; stroke-width: 0.8"/>
      </g>
     </g>
     <g id="text_16">
      <!-- 1.75 -->
      <g transform="translate(114.734375 112.293429) scale(0.1 -0.1)">
       <use xlink:href="#DejaVuSans-31"/>
       <use xlink:href="#DejaVuSans-2e" x="63.623047"/>
       <use xlink:href="#DejaVuSans-37" x="95.410156"/>
       <use xlink:href="#DejaVuSans-35" x="159.033203"/>
      </g>
     </g>
    </g>
    <g id="text_17">
     <!-- Histogram difference -->
     <g transform="translate(108.654687 343.580781) rotate(-90) scale(0.1 -0.1)">
      <defs>
       <path id="DejaVuSans-48" d="M 628 4666 
L 1259 4666 
L 1259 2753 
L 3553 2753 
L 3553 4666 
L 4184 4666 
L 4184 0 
L 3553 0 
L 3553 2222 
L 1259 2222 
L 1259 0 
L 628 0 
L 628 4666 
z
" transform="scale(0.015625)"/>
       <path id="DejaVuSans-69" d="M 603 3500 
L 1178 3500 
L 1178 0 
L 603 0 
L 603 3500 
z
M 603 4863 
L 1178 4863 
L 1178 4134 
L 603 4134 
L 603 4863 
z
" transform="scale(0.015625)"/>
       <path id="DejaVuSans-73" d="M 2834 3397 
L 2834 2853 
Q 2591 2978 2328 3040 
Q 2066 3103 1784 3103 
Q 1356 3103 1142 2972 
Q 928 2841 928 2578 
Q 928 2378 1081 2264 
Q 1234 2150 1697 2047 
L 1894 2003 
Q 2506 1872 2764 1633 
Q 3022 1394 3022 966 
Q 3022 478 2636 193 
Q 2250 -91 1575 -91 
Q 1294 -91 989 -36 
Q 684 19 347 128 
L 347 722 
Q 666 556 975 473 
Q 1284 391 1588 391 
Q 1994 391 2212 530 
Q 2431 669 2431 922 
Q 2431 1156 2273 1281 
Q 2116 1406 1581 1522 
L 1381 1569 
Q 847 1681 609 1914 
Q 372 2147 372 2553 
Q 372 3047 722 3315 
Q 1072 3584 1716 3584 
Q 2034 3584 2315 3537 
Q 2597 3491 2834 3397 
z
" transform="scale(0.015625)"/>
       <path id="DejaVuSans-74" d="M 1172 4494 
L 1172 3500 
L 2356 3500 
L 2356 3053 
L 1172 3053 
L 1172 1153 
Q 1172 725 1289 603 
Q 1406 481 1766 481 
L 2356 481 
L 2356 0 
L 1766 0 
Q 1100 0 847 248 
Q 594 497 594 1153 
L 594 3053 
L 172 3053 
L 172 3500 
L 594 3500 
L 594 4494 
L 1172 4494 
z
" transform="scale(0.015625)"/>
       <path id="DejaVuSans-6f" d="M 1959 3097 
Q 1497 3097 1228 2736 
Q 959 2375 959 1747 
Q 959 1119 1226 758 
Q 1494 397 1959 397 
Q 2419 397 2687 759 
Q 2956 1122 2956 1747 
Q 2956 2369 2687 2733 
Q 2419 3097 1959 3097 
z
M 1959 3584 
Q 2709 3584 3137 3096 
Q 3566 2609 3566 1747 
Q 3566 888 3137 398 
Q 2709 -91 1959 -91 
Q 1206 -91 779 398 
Q 353 888 353 1747 
Q 353 2609 779 3096 
Q 1206 3584 1959 3584 
z
" transform="scale(0.015625)"/>
       <path id="DejaVuSans-67" d="M 2906 1791 
Q 2906 2416 2648 2759 
Q 2391 3103 1925 3103 
Q 1463 3103 1205 2759 
Q 947 2416 947 1791 
Q 947 1169 1205 825 
Q 1463 481 1925 481 
Q 2391 481 2648 825 
Q 2906 1169 2906 1791 
z
M 3481 434 
Q 3481 -459 3084 -895 
Q 2688 -1331 1869 -1331 
Q 1566 -1331 1297 -1286 
Q 1028 -1241 775 -1147 
L 775 -588 
Q 1028 -725 1275 -790 
Q 1522 -856 1778 -856 
Q 2344 -856 2625 -561 
Q 2906 -266 2906 331 
L 2906 616 
Q 2728 306 2450 153 
Q 2172 0 1784 0 
Q 1141 0 747 490 
Q 353 981 353 1791 
Q 353 2603 747 3093 
Q 1141 3584 1784 3584 
Q 2172 3584 2450 3431 
Q 2728 3278 2906 2969 
L 2906 3500 
L 3481 3500 
L 3481 434 
z
" transform="scale(0.015625)"/>
       <path id="DejaVuSans-64" d="M 2906 2969 
L 2906 4863 
L 3481 4863 
L 3481 0 
L 2906 0 
L 2906 525 
Q 2725 213 2448 61 
Q 2172 -91 1784 -91 
Q 1150 -91 751 415 
Q 353 922 353 1747 
Q 353 2572 751 3078 
Q 1150 3584 1784 3584 
Q 2172 3584 2448 3432 
Q 2725 3281 2906 2969 
z
M 947 1747 
Q 947 1113 1208 752 
Q 1469 391 1925 391 
Q 2381 391 2643 752 
Q 2906 1113 2906 1747 
Q 2906 2381 2643 2742 
Q 2381 3103 1925 3103 
Q 1469 3103 1208 2742 
Q 947 2381 947 1747 
z
" transform="scale(0.015625)"/>
       <path id="DejaVuSans-66" d="M 2375 4863 
L 2375 4384 
L 1825 4384 
Q 1516 4384 1395 4259 
Q 1275 4134 1275 3809 
L 1275 3500 
L 2222 3500 
L 2222 3053 
L 1275 3053 
L 1275 0 
L 697 0 
L 697 3053 
L 147 3053 
L 147 3500 
L 697 3500 
L 697 3744 
Q 697 4328 969 4595 
Q 1241 4863 1831 4863 
L 2375 4863 
z
" transform="scale(0.015625)"/>
       <path id="DejaVuSans-63" d="M 3122 3366 
L 3122 2828 
Q 2878 2963 2633 3030 
Q 2388 3097 2138 3097 
Q 1578 3097 1268 2742 
Q 959 2388 959 1747 
Q 959 1106 1268 751 
Q 1578 397 2138 397 
Q 2388 397 2633 464 
Q 2878 531 3122 666 
L 3122 134 
Q 2881 22 2623 -34 
Q 2366 -91 2075 -91 
Q 1284 -91 818 406 
Q 353 903 353 1747 
Q 353 2603 823 3093 
Q 1294 3584 2113 3584 
Q 2378 3584 2631 3529 
Q 2884 3475 3122 3366 
z
" transform="scale(0.015625)"/>
      </defs>
      <use xlink:href="#DejaVuSans-48"/>
      <use xlink:href="#DejaVuSans-69" x="75.195312"/>
      <use xlink:href="#DejaVuSans-73" x="102.978516"/>
      <use xlink:href="#DejaVuSans-74" x="155.078125"/>
      <use xlink:href="#DejaVuSans-6f" x="194.287109"/>
      <use xlink:href="#DejaVuSans-67" x="255.46875"/>
      <use xlink:href="#DejaVuSans-72" x="318.945312"/>
      <use xlink:href="#DejaVuSans-61" x="360.058594"/>
      <use xlink:href="#DejaVuSans-6d" x="421.337891"/>
      <use xlink:href="#DejaVuSans-20" x="518.75"/>
      <use xlink:href="#DejaVuSans-64" x="550.537109"/>
      <use xlink:href="#DejaVuSans-69" x="614.013672"/>
      <use xlink:href="#DejaVuSans-66" x="641.796875"/>
      <use xlink:href="#DejaVuSans-66" x="677.001953"/>
      <use xlink:href="#DejaVuSans-65" x="712.207031"/>
      <use xlink:href="#DejaVuSans-72" x="773.730469"/>
      <use xlink:href="#DejaVuSans-65" x="812.59375"/>
      <use xlink:href="#DejaVuSans-6e" x="874.117188"/>
      <use xlink:href="#DejaVuSans-63" x="937.496094"/>
      <use xlink:href="#DejaVuSans-65" x="992.476562"/>
     </g>
    </g>
    <g id="text_18">
     <!-- 1e6 -->
     <g transform="translate(144 66.12) scale(0.1 -0.1)">
      <defs>
       <path id="DejaVuSans-36" d="M 2113 2584 
Q 1688 2584 1439 2293 
Q 1191 2003 1191 1497 
Q 1191 994 1439 701 
Q 1688 409 2113 409 
Q 2538 409 2786 701 
Q 3034 994 3034 1497 
Q 3034 2003 2786 2293 
Q 2538 2584 2113 2584 
z
M 3366 4563 
L 3366 3988 
Q 3128 4100 2886 4159 
Q 2644 4219 2406 4219 
Q 1781 4219 1451 3797 
Q 1122 3375 1075 2522 
Q 1259 2794 1537 2939 
Q 1816 3084 2150 3084 
Q 2853 3084 3261 2657 
Q 3669 2231 3669 1497 
Q 3669 778 3244 343 
Q 2819 -91 2113 -91 
Q 1303 -91 875 529 
Q 447 1150 447 2328 
Q 447 3434 972 4092 
Q 1497 4750 2381 4750 
Q 2619 4750 2861 4703 
Q 3103 4656 3366 4563 
z
" transform="scale(0.015625)"/>
      </defs>
      <use xlink:href="#DejaVuSans-31"/>
      <use xlink:href="#DejaVuSans-65" x="63.623047"/>
      <use xlink:href="#DejaVuSans-36" x="125.146484"/>
     </g>
    </g>
   </g>
   <g id="line2d_16">
    <path d="M 184.581818 492.48 
L 184.828217 492.48 
L 185.074615 491.80594 
L 185.321013 104.530599 
L 185.567412 89.28 
L 185.81381 455.125862 
L 186.060209 174.22775 
L 186.306607 410.053391 
L 186.553005 487.731741 
L 186.799404 111.27339 
L 187.045802 465.306971 
L 187.292201 492.368534 
L 187.538599 492.306658 
L 187.784998 492.441382 
L 188.031396 492.243465 
L 188.524193 492.427778 
L 188.770591 490.205049 
L 189.01699 491.375876 
L 189.263388 489.87899 
L 189.509786 490.807577 
L 190.002583 491.473738 
L 190.248982 489.092148 
L 190.49538 491.176643 
L 190.741778 491.134953 
L 190.988177 491.482953 
L 191.234575 491.57906 
L 191.480974 491.34779 
L 191.727372 491.50709 
L 191.97377 491.454429 
L 192.220169 491.640059 
L 192.466567 491.567211 
L 192.712966 486.664042 
L 192.959364 488.095102 
L 193.205763 487.108149 
L 193.452161 484.791069 
L 193.698559 488.551496 
L 193.944958 484.726559 
L 194.191356 488.919245 
L 194.437755 489.510364 
L 194.684153 491.088874 
L 195.17695 490.957661 
L 195.423348 489.974218 
L 195.669747 490.983991 
L 195.916145 491.400451 
L 196.162543 491.216138 
L 196.65534 491.433364 
L 196.901739 490.905878 
L 197.148137 491.093263 
L 197.394536 490.658371 
L 197.640934 490.775542 
L 197.887332 491.278892 
L 198.133731 490.684263 
L 198.380129 490.95415 
L 198.872926 490.736046 
L 199.119324 491.056839 
L 199.365723 490.820304 
L 199.612121 490.168625 
L 199.85852 490.633796 
L 200.104918 489.943938 
L 200.844113 490.355571 
L 201.090512 490.329241 
L 201.33691 490.565776 
L 201.583308 490.140978 
L 201.829707 488.489181 
L 202.322504 490.355571 
L 202.568902 489.309813 
L 202.815301 490.771592 
L 203.061699 490.118158 
L 203.308097 490.710155 
L 203.554496 490.855411 
L 203.800894 490.145805 
L 204.047293 490.191006 
L 204.293691 490.606149 
L 204.540089 490.039606 
L 205.032886 490.048821 
L 205.279285 491.244663 
L 205.525683 491.108183 
L 206.01848 490.574553 
L 206.264878 491.044113 
L 206.511277 489.035538 
L 206.757675 490.187495 
L 207.743269 489.36774 
L 207.989667 488.712112 
L 208.236066 489.606909 
L 208.482464 487.851106 
L 208.728862 488.678321 
L 208.975261 487.515832 
L 209.221659 487.775626 
L 209.468058 484.463693 
L 209.960854 460.311206 
L 210.207253 491.191124 
L 210.453651 492.145164 
L 210.70005 492.226789 
L 210.946448 486.917253 
L 211.192846 490.004937 
L 211.439245 486.446815 
L 211.932042 491.848947 
L 212.17844 492.302708 
L 212.424839 492.470346 
L 212.671237 492.363707 
L 212.917635 492.479122 
L 213.656831 492.44226 
L 213.903229 490.158532 
L 214.149627 491.993325 
L 214.642424 492.476489 
L 214.888823 492.280766 
L 215.135221 492.367657 
L 215.381619 492.282522 
L 215.628018 481.332563 
L 215.874416 492.168423 
L 216.120815 491.898097 
L 216.367213 492.13156 
L 216.613612 491.358323 
L 216.86001 491.307417 
L 217.106408 491.998153 
L 217.352807 491.424588 
L 217.599205 486.389766 
L 217.845604 492.328161 
L 218.092002 492.246537 
L 218.3384 492.424267 
L 219.077596 492.450598 
L 219.323994 492.165351 
L 219.816791 492.383016 
L 220.063189 492.434799 
L 220.309588 492.167984 
L 220.555986 492.095137 
L 220.802385 491.882738 
L 221.048783 492.063979 
L 221.295181 490.656616 
L 221.54158 491.751524 
L 221.787978 491.843681 
L 222.280775 491.613289 
L 222.527173 491.910823 
L 222.773572 491.883176 
L 223.01997 492.168423 
L 223.512767 492.210113 
L 223.759165 490.634674 
L 224.005564 491.850702 
L 224.251962 492.133755 
L 224.498361 491.86299 
L 224.744759 492.129366 
L 224.991157 492.089432 
L 225.483954 492.300953 
L 225.730353 491.917406 
L 225.976751 492.259702 
L 226.22315 492.121467 
L 226.715946 492.310607 
L 226.962345 492.171495 
L 227.947938 492.248731 
L 228.194337 492.10128 
L 228.440735 492.201775 
L 228.687134 490.869893 
L 228.933532 492.352736 
L 229.17993 491.084486 
L 229.426329 492.249609 
L 229.672727 492.145164 
L 229.919126 492.312363 
L 230.165524 492.209674 
L 230.411923 492.280766 
L 230.904719 492.010879 
L 231.397516 491.326726 
L 231.643915 492.009124 
L 232.136711 492.228544 
L 232.38311 492.133755 
L 232.629508 491.714223 
L 232.875907 492.210991 
L 234.107899 490.744823 
L 234.354297 489.424351 
L 234.600695 489.353259 
L 234.847094 491.428537 
L 235.093492 491.209556 
L 235.339891 488.969273 
L 235.586289 489.045192 
L 235.832688 488.155223 
L 236.079086 488.877116 
L 236.325484 487.865149 
L 236.818281 483.570652 
L 237.06468 486.610942 
L 237.311078 491.57906 
L 237.557476 491.207361 
L 237.803875 491.242907 
L 238.050273 491.466278 
L 238.296672 491.843681 
L 238.54307 490.750528 
L 238.789468 491.607145 
L 239.035867 491.377193 
L 239.282265 491.342086 
L 239.528664 491.058594 
L 240.021461 491.469788 
L 240.267859 490.671098 
L 240.514257 491.146801 
L 240.760656 490.789146 
L 241.007054 491.830077 
L 241.253453 491.588714 
L 241.499851 490.718493 
L 241.746249 491.804624 
L 241.992648 491.664634 
L 242.239046 491.871767 
L 242.485445 491.620311 
L 242.731843 491.754596 
L 242.978241 491.230181 
L 243.22464 491.326726 
L 243.471038 491.279331 
L 243.717437 491.849386 
L 243.963835 492.01439 
L 244.210233 492.02185 
L 244.456632 491.911262 
L 244.70303 491.235447 
L 244.949429 491.337258 
L 245.195827 491.781365 
L 245.688624 491.762056 
L 245.935022 491.627771 
L 246.181421 490.528036 
L 246.427819 487.306066 
L 246.674218 491.374121 
L 247.167014 490.626336 
L 247.413413 490.940107 
L 247.659811 491.741431 
L 247.90621 489.694677 
L 248.152608 491.780488 
L 248.399006 491.621188 
L 248.645405 491.889759 
L 248.891803 491.838853 
L 249.138202 492.11269 
L 249.3846 491.630404 
L 249.630999 491.681748 
L 249.877397 491.561067 
L 250.123795 492.105669 
L 250.370194 492.201775 
L 250.862991 491.65454 
L 251.109389 491.725194 
L 251.355787 491.608023 
L 251.602186 491.852458 
L 251.848584 491.544391 
L 252.094983 491.79848 
L 252.341381 491.879666 
L 252.587779 491.134953 
L 253.080576 487.086645 
L 253.326975 489.461213 
L 253.573373 490.157654 
L 253.819771 485.5744 
L 254.06617 491.418883 
L 254.312568 487.126141 
L 254.558967 491.215699 
L 254.805365 491.253001 
L 255.051764 491.165233 
L 255.298162 490.464404 
L 255.54456 490.69304 
L 256.037357 491.940665 
L 256.283756 486.564863 
L 256.530154 491.414933 
L 256.776552 491.981477 
L 257.022951 491.782243 
L 257.269349 491.982793 
L 257.515748 491.785754 
L 257.762146 491.126176 
L 258.008544 491.680432 
L 258.254943 491.92706 
L 258.501341 487.286318 
L 258.74774 490.891835 
L 258.994138 491.317072 
L 259.240537 491.108183 
L 259.733333 491.375876 
L 259.979732 486.996244 
L 260.22613 491.447846 
L 260.472529 491.739237 
L 260.718927 490.592106 
L 260.965325 489.999232 
L 261.211724 491.748013 
L 261.458122 491.245979 
L 261.704521 491.712467 
L 261.950919 491.326726 
L 262.197317 491.77215 
L 262.443716 491.792336 
L 262.690114 491.643569 
L 263.182911 489.657814 
L 263.429309 490.81811 
L 263.675708 489.397581 
L 263.922106 491.445652 
L 264.168505 490.153704 
L 264.414903 490.659249 
L 264.661302 490.147561 
L 264.9077 490.947129 
L 265.154098 488.09203 
L 265.400497 487.184946 
L 265.646895 489.477889 
L 265.893294 489.521773 
L 266.139692 490.452116 
L 266.38609 489.771035 
L 267.125286 490.738679 
L 267.371684 491.928377 
L 267.618082 489.99265 
L 267.864481 491.40089 
L 268.110879 491.282842 
L 268.357278 490.053649 
L 268.603676 488.213589 
L 268.850075 491.278015 
L 269.096473 491.181031 
L 269.342871 488.170143 
L 269.58927 488.431693 
L 269.835668 489.189132 
L 270.082067 489.511241 
L 270.328465 491.254317 
L 270.574863 490.953711 
L 270.821262 491.614606 
L 271.06766 489.694677 
L 271.314059 486.668869 
L 271.560457 490.315637 
L 271.806855 484.960022 
L 272.053254 488.700702 
L 272.299652 488.490059 
L 272.792449 490.521014 
L 273.038847 488.32286 
L 273.285246 490.811966 
L 273.531644 490.601761 
L 273.778043 487.218736 
L 274.024441 489.802632 
L 274.27084 490.804067 
L 274.517238 490.187495 
L 274.763636 490.176963 
L 275.256433 490.589473 
L 275.502832 490.815476 
L 275.74923 483.392483 
L 275.995628 487.700584 
L 276.242027 487.015553 
L 276.488425 490.487662 
L 276.734824 491.602757 
L 276.981222 491.036213 
L 277.474019 492.281644 
L 277.720417 492.270673 
L 277.966816 492.14692 
L 278.213214 484.296495 
L 278.459613 485.521739 
L 278.706011 477.30181 
L 278.952409 490.876037 
L 279.198808 488.908713 
L 279.445206 490.338456 
L 279.691605 365.055084 
L 279.938003 449.16377 
L 280.184401 472.951141 
L 280.923597 491.822177 
L 281.90919 492.183782 
L 282.155589 492.139021 
L 282.648385 492.345715 
L 282.894784 491.662439 
L 283.880378 492.239076 
L 284.126776 491.648396 
L 284.373174 492.166668 
L 284.619573 492.261018 
L 284.865971 492.168423 
L 285.358768 492.242148 
L 285.605166 492.069684 
L 286.097963 492.383455 
L 286.344362 492.085043 
L 286.59076 492.372923 
L 286.837158 492.119712 
L 287.329955 492.363268 
L 287.822752 491.381142 
L 288.069151 492.231177 
L 288.315549 491.888004 
L 288.561947 492.357125 
L 288.808346 492.133316 
L 289.054744 492.189926 
L 289.301143 492.100403 
L 289.547541 492.274622 
L 289.793939 492.166229 
L 290.040338 492.193437 
L 290.286736 491.149873 
L 290.779533 484.083218 
L 291.025931 483.66237 
L 291.27233 481.850396 
L 291.765127 472.439014 
L 292.011525 478.602534 
L 292.257923 475.853196 
L 292.504322 476.494781 
L 292.75072 491.526838 
L 292.997119 492.440943 
L 293.243517 492.305341 
L 293.489916 492.299198 
L 293.736314 487.178363 
L 293.982712 492.441382 
L 294.229111 492.253558 
L 294.475509 492.317629 
L 294.721908 492.167106 
L 294.968306 491.752841 
L 295.214704 491.858601 
L 295.461103 489.94701 
L 295.707501 492.225911 
L 295.9539 492.452353 
L 296.446696 492.463763 
L 296.939493 492.415052 
L 297.185892 487.719015 
L 297.43229 492.386527 
L 298.417884 492.288227 
L 298.664282 491.764689 
L 298.910681 491.824372 
L 299.157079 492.464202 
L 300.389071 492.413735 
L 300.635469 492.211868 
L 300.881868 492.479561 
L 301.374665 492.48 
L 301.621063 486.923396 
L 301.867462 492.472979 
L 302.11386 492.155258 
L 302.360258 492.351858 
L 302.606657 487.211276 
L 302.853055 491.845436 
L 303.099454 481.022742 
L 303.345852 491.781804 
L 303.59225 491.979283 
L 303.838649 492.350981 
L 304.085047 492.451037 
L 304.331446 492.369412 
L 304.577844 492.465957 
L 305.070641 491.819983 
L 305.317039 492.224156 
L 305.809836 492.429533 
L 306.056234 492.318945 
L 306.302633 491.364466 
L 306.549031 492.2755 
L 306.79543 492.019656 
L 307.288227 492.472979 
L 307.534625 492.376434 
L 307.781023 492.465957 
L 308.027422 492.037648 
L 308.766617 491.569844 
L 309.259414 491.894586 
L 309.505812 492.424267 
L 309.752211 492.442699 
L 309.998609 492.23381 
L 310.245007 492.43085 
L 310.491406 492.321578 
L 310.737804 492.435238 
L 311.969796 492.234688 
L 312.216195 490.889641 
L 312.462593 488.115288 
L 312.708992 483.990184 
L 313.448187 441.134298 
L 313.694585 401.279206 
L 313.940984 448.352353 
L 314.187382 303.666507 
L 314.43378 302.932327 
L 314.680179 492.360196 
L 314.926577 492.153502 
L 315.172976 492.409785 
L 315.419374 492.479122 
L 315.665772 492.086799 
L 315.912171 492.367657 
L 316.158569 492.187732 
L 316.404968 492.164912 
L 316.897765 489.580139 
L 317.144163 490.455627 
L 317.390561 485.334354 
L 317.63696 483.07169 
L 317.883358 488.438275 
L 318.129757 487.700145 
L 318.376155 485.314606 
L 318.622553 485.687182 
L 318.868952 483.873891 
L 319.11535 489.479645 
L 319.361749 485.993054 
L 319.608147 485.785043 
L 320.100944 486.781212 
L 320.347342 483.234061 
L 320.593741 486.295415 
L 320.840139 487.255599 
L 321.086538 487.605355 
L 321.332936 485.56299 
L 321.579334 487.460977 
L 321.825733 485.534904 
L 322.072131 488.211395 
L 322.564928 490.577186 
L 322.811326 486.40337 
L 323.304123 489.908831 
L 323.550522 489.108385 
L 323.79692 491.626893 
L 324.043318 489.642016 
L 324.289717 491.070443 
L 324.536115 491.59793 
L 324.782514 491.050695 
L 325.028912 489.940867 
L 325.27531 491.522888 
L 325.521709 491.34779 
L 325.768107 487.057682 
L 326.014506 491.543514 
L 326.260904 490.915532 
L 326.507303 489.215024 
L 326.753701 488.546669 
L 327.000099 491.659806 
L 327.246498 491.253879 
L 327.492896 490.127374 
L 327.739295 492.320701 
L 327.985693 487.391201 
L 328.232091 492.099964 
L 328.47849 490.256393 
L 328.724888 492.150869 
L 328.971287 481.777548 
L 329.217685 491.905996 
L 329.464083 492.43831 
L 329.710482 492.291298 
L 329.95688 492.460252 
L 330.203279 491.034897 
L 330.449677 492.371606 
L 330.696076 492.28691 
L 330.942474 492.369412 
L 331.188872 488.354457 
L 331.435271 492.403203 
L 331.928068 492.384772 
L 332.174466 487.299044 
L 332.420864 491.687892 
L 332.667263 491.121787 
L 332.913661 488.821822 
L 333.16006 492.086799 
L 333.406458 490.32968 
L 333.899255 491.988937 
L 334.145653 484.606317 
L 334.392052 492.259702 
L 334.63845 491.813401 
L 335.131247 492.420318 
L 335.377645 491.992448 
L 335.624044 492.395304 
L 335.870442 488.931971 
L 336.116841 492.420318 
L 336.363239 492.149992 
L 336.609637 492.428217 
L 337.348833 492.40803 
L 337.595231 491.977088 
L 337.841629 492.270673 
L 338.334426 492.27945 
L 338.580825 489.263296 
L 338.827223 491.691403 
L 339.073621 491.13232 
L 339.32002 492.171495 
L 339.812817 490.780808 
L 340.059215 491.73397 
L 340.305614 491.605829 
L 340.552012 491.185419 
L 340.79841 491.858162 
L 341.044809 491.479882 
L 341.291207 491.423271 
L 341.537606 491.509723 
L 341.784004 491.078342 
L 342.030402 481.075403 
L 342.276801 489.912342 
L 342.523199 488.459778 
L 342.769598 488.152151 
L 343.015996 491.136269 
L 343.262394 490.700939 
L 343.508793 489.176406 
L 343.755191 489.066257 
L 344.00159 483.184472 
L 344.247988 489.619635 
L 344.494386 491.006811 
L 344.740785 489.241793 
L 345.233582 492.201336 
L 345.726379 492.319823 
L 345.972777 491.781804 
L 346.219175 492.164912 
L 346.465574 492.106546 
L 346.711972 491.034458 
L 346.958371 488.509806 
L 347.204769 491.864745 
L 347.943964 492.34352 
L 348.190363 492.431289 
L 348.436761 492.325528 
L 348.683159 492.45367 
L 348.929558 492.297442 
L 349.175956 492.471662 
L 349.422355 492.311046 
L 349.668753 492.475173 
L 350.16155 492.454547 
L 350.407948 492.403203 
L 350.654347 491.422832 
L 350.900745 492.468151 
L 351.147144 492.354492 
L 351.393542 492.444893 
L 351.886339 492.212307 
L 352.132737 478.132974 
L 352.379136 443.287251 
L 352.625534 465.482947 
L 352.871932 328.690971 
L 353.118331 370.5994 
L 353.364729 452.91937 
L 353.611128 445.086938 
L 353.857526 446.539062 
L 354.103924 463.394941 
L 354.350323 468.520164 
L 354.596721 478.272087 
L 354.84312 482.688582 
L 355.089518 484.915699 
L 355.335917 485.843848 
L 355.828713 490.779492 
L 356.075112 490.548661 
L 356.32151 489.523968 
L 356.567909 490.219531 
L 356.814307 489.663519 
L 357.060705 491.064299 
L 357.553502 490.040922 
L 357.799901 490.65135 
L 358.046299 487.679519 
L 358.292697 491.120471 
L 358.539096 479.641271 
L 358.785494 491.144607 
L 359.031893 491.176643 
L 359.278291 490.93923 
L 359.771088 491.674727 
L 360.510283 491.84763 
L 360.756682 491.618116 
L 361.00308 490.905878 
L 361.249478 490.919921 
L 361.495877 490.292378 
L 361.742275 485.810935 
L 361.988674 491.242907 
L 362.235072 491.607145 
L 362.48147 491.738798 
L 362.727869 491.34428 
L 362.974267 492.110057 
L 363.220666 491.794969 
L 363.467064 490.718931 
L 363.959861 486.367385 
L 365.191853 470.174595 
L 365.438251 472.34203 
L 365.931048 477.452332 
L 366.177447 479.114223 
L 366.423845 403.319377 
L 366.670243 380.823954 
L 366.916642 463.860552 
L 367.16304 479.069461 
L 367.409439 394.074755 
L 367.655837 406.60103 
L 367.902235 389.482285 
L 368.148634 384.436492 
L 368.395032 454.432055 
L 368.641431 436.461959 
L 368.887829 448.931623 
L 369.134228 475.832132 
L 369.380626 473.753342 
L 369.627024 489.616124 
L 369.873423 489.691605 
L 370.119821 484.269287 
L 370.36622 487.085768 
L 370.612618 478.35415 
L 370.859016 477.598027 
L 371.105415 486.51703 
L 371.84461 490.708838 
L 372.091008 489.485789 
L 372.337407 464.76237 
L 372.583805 484.693646 
L 373.076602 463.626649 
L 373.323 485.342253 
L 373.815797 457.807619 
L 374.062196 489.742949 
L 374.308594 491.810329 
L 374.554993 492.431728 
L 374.801391 491.866939 
L 375.047789 492.441821 
L 375.786985 492.441382 
L 376.033383 492.297003 
L 376.279781 490.253321 
L 376.52618 491.721244 
L 376.772578 491.728704 
L 377.018977 492.160085 
L 377.265375 492.042914 
L 377.511773 492.240393 
L 377.758172 491.925305 
L 378.250969 492.428656 
L 378.497367 492.247853 
L 378.990164 492.458058 
L 379.236562 492.380822 
L 379.729359 492.475612 
L 379.975758 492.353614 
L 380.468554 492.461569 
L 381.20775 492.48 
L 381.454148 483.09451 
L 381.700546 492.365901 
L 381.946945 492.152186 
L 382.193343 492.375556 
L 382.439742 486.530195 
L 382.68614 491.975333 
L 382.932538 484.196 
L 383.178937 459.896941 
L 383.425335 447.041974 
L 383.918132 480.673863 
L 384.164531 491.646202 
L 384.410929 491.383775 
L 384.657327 492.410224 
L 384.903726 492.214501 
L 385.150124 492.40057 
L 385.396523 491.248174 
L 386.135718 492.446209 
L 386.382116 492.228983 
L 386.628515 492.440065 
L 386.874913 492.436116 
L 387.121311 492.300953 
L 387.36771 492.418562 
L 387.614108 490.625897 
L 387.860507 492.261896 
L 388.106905 482.29187 
L 388.353304 491.845436 
L 388.599702 489.427862 
L 388.8461 492.148675 
L 389.092499 491.88186 
L 389.585296 492.415052 
L 389.831694 491.443458 
L 390.078092 492.406275 
L 390.324491 492.023605 
L 390.570889 490.16687 
L 390.817288 492.208357 
L 391.063686 492.314996 
L 391.310084 489.707403 
L 391.556483 492.352736 
L 391.802881 491.897219 
L 392.04928 492.317629 
L 392.295678 489.142176 
L 392.542077 492.318945 
L 392.788475 492.121467 
L 393.034873 492.304464 
L 393.281272 492.153064 
L 393.52767 492.196509 
L 393.774069 492.123661 
L 394.020467 492.217134 
L 394.266865 492.465079 
L 395.006061 492.440504 
L 395.991654 492.248731 
L 396.238053 487.48248 
L 396.484451 492.36634 
L 396.730849 491.707201 
L 396.977248 492.383894 
L 397.223646 489.244865 
L 397.470045 491.984549 
L 397.716443 492.03721 
L 397.962842 485.90002 
L 398.20924 491.762056 
L 398.455638 492.153941 
L 398.702037 489.184744 
L 398.948435 492.081971 
L 399.194834 492.232494 
L 399.934029 492.232494 
L 400.180427 491.934082 
L 400.426826 492.181588 
L 400.919622 491.968312 
L 401.166021 491.751963 
L 401.412419 491.702813 
L 401.658818 490.610538 
L 401.905216 491.647958 
L 402.398013 491.081414 
L 402.644411 486.563547 
L 402.89081 490.272191 
L 403.137208 491.437753 
L 403.383607 491.33287 
L 403.630005 489.906198 
L 403.876403 489.272951 
L 404.122802 491.656296 
L 404.3692 492.050375 
L 404.615599 491.501385 
L 404.861997 489.769719 
L 405.108395 490.342845 
L 405.354794 492.014829 
L 405.847591 491.346035 
L 406.340387 485.336548 
L 406.586786 485.895192 
L 407.079583 476.165651 
L 407.325981 461.004136 
L 407.57238 477.181128 
L 407.818778 467.299748 
L 408.065176 471.025946 
L 408.311575 482.079032 
L 408.557973 487.930536 
L 408.804372 488.053851 
L 409.05077 488.821383 
L 409.297168 485.113617 
L 409.543567 488.064822 
L 409.789965 487.761144 
L 410.036364 488.969712 
L 410.282762 491.602757 
L 410.52916 490.15546 
L 410.775559 491.426782 
L 411.021957 491.1095 
L 411.268356 492.055641 
L 411.514754 490.021174 
L 411.761153 491.652785 
L 412.007551 489.025006 
L 412.746746 491.979721 
L 412.993145 489.931651 
L 413.239543 492.027994 
L 413.485941 489.154025 
L 413.73234 491.769517 
L 413.978738 492.002102 
L 414.225137 492.440504 
L 414.471535 492.440504 
L 414.717933 492.319823 
L 415.703527 492.293493 
L 415.949925 491.293374 
L 416.196324 492.247853 
L 416.442722 488.366744 
L 416.689121 491.913895 
L 416.935519 491.328043 
L 417.181918 492.026239 
L 417.428316 491.687453 
L 417.674714 483.001037 
L 417.921113 492.098647 
L 418.167511 491.705885 
L 418.41391 492.151747 
L 418.660308 492.151308 
L 418.906706 490.926942 
L 419.153105 492.267162 
L 419.399503 492.416368 
L 419.645902 491.96875 
L 419.8923 492.425145 
L 420.138698 489.861875 
L 420.385097 492.23776 
L 420.631495 492.358002 
L 420.877894 483.516236 
L 421.124292 491.733532 
L 421.370691 492.131121 
L 421.617089 492.264968 
L 421.863487 492.139898 
L 422.109886 492.270673 
L 422.602683 492.000786 
L 422.849081 491.102478 
L 423.095479 491.03358 
L 423.341878 489.81448 
L 423.588276 490.249811 
L 423.834675 491.143291 
L 424.081073 491.242469 
L 424.327471 487.737008 
L 424.57387 491.398696 
L 424.820268 491.712906 
L 425.066667 489.575751 
L 425.559463 488.082814 
L 425.805862 492.367218 
L 426.545057 492.408469 
L 426.791456 485.961457 
L 427.037854 491.668144 
L 427.284252 492.444454 
L 427.530651 492.350103 
L 428.023448 492.397498 
L 428.269846 489.253642 
L 428.516244 492.177639 
L 429.009041 492.25663 
L 429.25544 492.163596 
L 429.501838 492.463763 
L 429.994635 492.461569 
L 430.241033 492.122784 
L 430.487432 492.458497 
L 431.719424 492.458058 
L 431.965822 492.183782 
L 432.212221 489.8904 
L 432.458619 491.184103 
L 432.951416 492.441821 
L 433.690611 492.418562 
L 433.937009 164.234026 
L 434.183408 492.22635 
L 434.429806 491.971383 
L 434.676205 492.472979 
L 434.922603 492.169301 
L 435.169001 490.438512 
L 435.4154 492.455864 
L 435.661798 492.109618 
L 435.908197 492.454547 
L 436.154595 492.350542 
L 436.400994 489.032027 
L 436.647392 491.405279 
L 436.89379 487.700584 
L 437.140189 491.141974 
L 437.386587 491.89327 
L 437.632986 492.224156 
L 437.879384 492.160085 
L 438.125782 491.146801 
L 438.372181 484.587885 
L 438.864978 490.620192 
L 439.111376 491.811206 
L 439.357774 491.595736 
L 439.604173 487.988463 
L 439.850571 491.779171 
L 440.09697 489.168507 
L 440.343368 488.200862 
L 440.589767 491.249929 
L 440.836165 491.204728 
L 441.082563 489.04607 
L 441.328962 491.049379 
L 441.57536 489.217218 
L 441.821759 485.262823 
L 442.068157 489.586722 
L 442.314555 490.460015 
L 442.560954 489.197031 
L 443.053751 491.697986 
L 443.300149 491.85904 
L 443.792946 488.793298 
L 444.039344 481.561199 
L 444.285743 491.062105 
L 444.532141 487.444739 
L 444.778539 491.81384 
L 445.271336 492.380822 
L 445.517735 490.589035 
L 445.764133 490.619753 
L 446.25693 492.223278 
L 446.503328 492.212307 
L 446.749727 491.988059 
L 447.242524 492.363268 
L 447.488922 492.041598 
L 447.73532 481.59148 
L 447.981719 492.321578 
L 448.228117 492.315435 
L 448.474516 491.735287 
L 448.720914 482.854464 
L 448.967312 492.070123 
L 449.213711 492.21494 
L 449.460109 490.41657 
L 449.706508 492.354492 
L 449.952906 492.151747 
L 450.199305 492.318068 
L 450.9385 490.572359 
L 451.184898 491.43512 
L 451.431297 491.587836 
L 451.677695 492.142531 
L 451.924093 491.936276 
L 452.170492 492.125855 
L 452.41689 491.916967 
L 452.663289 492.32465 
L 453.895281 492.455425 
L 454.141679 491.342524 
L 454.388077 492.022728 
L 454.880874 492.462885 
L 455.127273 492.202653 
L 455.373671 492.429533 
L 455.62007 492.48 
L 455.866468 492.302708 
L 456.112866 492.48 
L 456.359265 492.44972 
L 456.605663 492.303147 
L 457.09846 492.478245 
L 457.344858 492.314557 
L 457.591257 492.479561 
L 457.837655 492.407152 
L 458.084054 492.48 
L 458.330452 492.372923 
L 458.57685 492.48 
L 458.823249 492.305341 
L 459.069647 446.101977 
L 459.316046 447.876211 
L 459.562444 412.980899 
L 459.808843 490.861555 
L 460.055241 491.996397 
L 460.301639 490.031268 
L 460.794436 491.73792 
L 461.287233 491.885809 
L 461.533631 491.988059 
L 461.78003 462.693674 
L 462.026428 482.316445 
L 462.272827 489.252764 
L 462.519225 491.498313 
L 462.765623 491.231498 
L 463.012022 491.640936 
L 463.25842 491.617239 
L 463.504819 490.161604 
L 463.751217 491.981038 
L 464.244014 492.326845 
L 464.736811 492.084604 
L 464.983209 492.178955 
L 465.229608 492.105669 
L 465.476006 492.202214 
L 465.722404 492.460691 
L 465.968803 492.247414 
L 466.215201 492.448403 
L 466.4616 492.367218 
L 466.707998 492.469029 
L 466.954396 492.402764 
L 467.447193 492.479122 
L 467.93999 492.479561 
L 468.186388 492.275061 
L 468.432787 492.425584 
L 468.679185 492.381261 
L 468.925584 492.117079 
L 469.418381 492.447526 
L 470.896771 492.48 
L 471.143169 492.367657 
L 471.389568 492.474734 
L 471.635966 491.978405 
L 471.882365 492.174567 
L 472.128763 467.418235 
L 472.375161 465.840163 
L 472.62156 468.033051 
L 472.867958 477.224574 
L 473.360755 484.045039 
L 473.607154 489.489299 
L 473.853552 491.996397 
L 474.09995 492.031943 
L 474.346349 492.399692 
L 475.085544 492.041598 
L 475.331942 483.449093 
L 476.071138 489.731101 
L 476.563934 490.919043 
L 476.810333 491.882299 
L 477.056731 492.251803 
L 477.549528 492.364146 
L 478.042325 491.625138 
L 478.288723 490.821181 
L 478.78152 492.397059 
L 479.274317 492.346154 
L 479.520715 491.714223 
L 479.767114 491.981038 
L 480.013512 491.195074 
L 480.259911 491.220088 
L 480.506309 492.414174 
L 480.752707 492.434799 
L 480.999106 492.241709 
L 481.491903 492.439188 
L 481.984699 492.463324 
L 483.955887 492.340449 
L 484.202285 491.808573 
L 484.448684 489.692483 
L 484.695082 490.413937 
L 484.94148 487.420603 
L 485.187879 487.390323 
L 485.434277 487.885336 
L 485.680676 490.930453 
L 485.927074 489.96588 
L 486.173472 490.337579 
L 486.419871 491.941981 
L 486.666269 492.190365 
L 487.159066 492.304025 
L 487.405464 491.264411 
L 487.651863 489.713108 
L 487.898261 490.90895 
L 488.14466 488.613812 
L 488.391058 491.733093 
L 489.376652 492.415052 
L 489.869449 492.367218 
L 490.362245 492.474734 
L 490.608644 492.48 
L 491.101441 492.020972 
L 491.347839 492.081532 
L 491.594237 492.258385 
L 491.840636 492.217134 
L 492.087034 492.355369 
L 492.82623 492.079777 
L 493.072628 490.845318 
L 493.319026 492.0258 
L 493.811823 492.38916 
L 494.30462 492.410224 
L 494.551018 492.186854 
L 495.043815 492.454108 
L 495.290214 492.288227 
L 495.536612 492.44226 
L 495.78301 491.701057 
L 496.029409 492.379505 
L 496.275807 492.291298 
L 496.768604 492.438749 
L 497.261401 492.433044 
L 497.507799 492.48 
L 497.754198 492.262335 
L 498.000596 492.48 
L 498.246995 492.251803 
L 498.493393 492.48 
L 499.232588 492.48 
L 499.478987 492.48 
L 499.725385 484.793263 
L 499.971783 492.196948 
L 500.218182 491.812523 
L 500.710979 492.439627 
L 501.203775 492.288665 
L 501.696572 492.464202 
L 501.942971 492.284277 
L 502.189369 491.475493 
L 502.435768 492.48 
L 502.682166 492.420318 
L 502.928564 492.478245 
L 503.421361 492.470346 
L 503.914158 492.48 
L 505.885345 492.458058 
L 506.131744 480.631734 
L 506.62454 440.042901 
L 506.870939 452.209326 
L 507.117337 476.581672 
L 507.363736 484.725242 
L 507.610134 486.837384 
L 507.856533 490.220408 
L 508.102931 484.650639 
L 508.349329 491.830077 
L 508.595728 491.759862 
L 508.842126 492.140776 
L 509.088525 487.756755 
L 509.581321 468.891424 
L 511.30611 488.289508 
L 511.552509 490.040045 
L 511.798907 490.602639 
L 512.045306 484.186346 
L 512.291704 492.050375 
L 512.538102 492.058713 
L 513.030899 492.312363 
L 513.277298 491.353057 
L 513.523696 492.45718 
L 513.770094 492.446209 
L 514.016493 492.233371 
L 514.262891 490.241473 
L 514.50929 492.329916 
L 514.755688 492.466396 
L 515.002086 492.087676 
L 515.248485 492.215818 
L 515.494883 489.368618 
L 515.741282 492.444893 
L 516.234078 492.401447 
L 516.480477 491.977527 
L 516.726875 491.986304 
L 517.219672 491.572916 
L 517.466071 491.773905 
L 517.712469 482.960663 
L 517.958867 492.423828 
L 518.205266 492.288227 
L 518.698063 492.479122 
L 519.190859 492.449281 
L 519.683656 491.96129 
L 519.930055 492.103475 
L 520.176453 492.40057 
L 520.915648 492.292615 
L 521.162047 491.676921 
L 521.654844 492.32114 
L 522.394039 492.238638 
L 522.640437 490.737363 
L 522.886836 492.236882 
L 523.133234 489.736367 
L 523.379632 489.437077 
L 523.872429 483.032194 
L 524.118828 479.911597 
L 524.365226 472.639125 
L 524.611624 474.07984 
L 524.858023 477.924086 
L 525.104421 484.918771 
L 525.843616 491.658929 
L 526.090015 492.208357 
L 526.336413 485.350152 
L 526.582812 492.107424 
L 527.568405 492.086799 
L 527.814804 488.27371 
L 528.061202 491.111255 
L 528.307601 492.29832 
L 528.553999 491.884932 
L 528.800397 492.253558 
L 529.046796 489.092587 
L 529.293194 492.369412 
L 529.539593 492.021411 
L 530.032389 492.479122 
L 530.278788 492.368534 
L 530.525186 492.478683 
L 530.771585 492.01439 
L 531.017983 492.157452 
L 531.264382 492.063979 
L 531.51078 492.129805 
L 531.757178 491.514989 
L 532.003577 492.340887 
L 532.249975 492.073633 
L 532.496374 492.390476 
L 532.742772 492.478683 
L 532.98917 492.406275 
L 533.481967 492.48 
L 533.728366 492.421195 
L 534.221162 492.48 
L 534.467561 492.293931 
L 534.713959 492.48 
L 534.960358 492.242148 
L 535.206756 491.813401 
L 535.453154 492.225472 
L 535.699553 492.398814 
L 535.945951 492.250047 
L 536.19235 492.293054 
L 536.438748 492.019217 
L 536.685147 492.448403 
L 536.931545 492.388721 
L 537.177943 492.48 
L 537.424342 491.32892 
L 537.917139 492.192998 
L 538.409935 492.477806 
L 538.902732 492.392232 
L 539.149131 482.199713 
L 539.395529 492.027994 
L 539.888326 492.293493 
L 540.134724 492.165351 
L 540.381123 492.437432 
L 541.366716 492.48 
L 541.613115 179.314355 
L 541.859513 491.499191 
L 542.105912 419.319078 
L 542.598708 480.669036 
L 542.845107 485.361123 
L 543.337904 488.160928 
L 543.584302 489.27339 
L 543.8307 486.632006 
L 544.077099 490.029512 
L 544.323497 490.748773 
L 544.569896 491.932327 
L 544.816294 490.918165 
L 545.555489 492.143409 
L 545.801888 491.879666 
L 546.048286 492.290421 
L 546.294685 491.614167 
L 546.541083 482.882111 
L 546.787481 491.055084 
L 547.03388 490.7005 
L 547.526677 492.29437 
L 548.265872 491.812523 
L 548.51227 492.314996 
L 548.758669 492.060029 
L 549.005067 492.289104 
L 549.251465 492.012196 
L 549.497864 492.321578 
L 549.744262 492.095575 
L 549.990661 492.096014 
L 550.237059 491.761617 
L 550.483458 492.2303 
L 550.729856 492.018339 
L 550.976254 492.081971 
L 551.222653 491.914773 
L 551.469051 492.177639 
L 551.71545 492.166229 
L 551.961848 492.28296 
L 552.947442 492.272867 
L 553.19384 491.941542 
L 553.686637 492.325528 
L 553.933035 490.918604 
L 554.672231 492.085921 
L 554.918629 491.179276 
L 555.411426 492.126294 
L 555.657824 492.331672 
L 555.904223 492.065734 
L 556.150621 492.175006 
L 556.397019 485.59678 
L 556.643418 491.604512 
L 556.889816 491.615483 
L 557.136215 488.066138 
L 557.382613 492.106985 
L 557.87541 490.326608 
L 558.121808 492.292176 
L 558.614605 492.090309 
L 558.861003 491.856846 
L 559.107402 491.795408 
L 559.3538 492.045109 
L 559.600199 492.134632 
L 559.846597 492.031505 
L 560.092996 492.202653 
L 560.339394 492.153064 
L 560.585792 492.238199 
L 561.324988 491.940226 
L 561.571386 492.169739 
L 561.817784 492.125417 
L 562.064183 491.62426 
L 562.310581 491.919161 
L 562.55698 491.558873 
L 562.803378 491.619872 
L 563.049776 491.148996 
L 563.788972 490.858922 
L 564.03537 487.997679 
L 564.281769 489.091709 
L 564.528167 488.584409 
L 564.774565 484.82091 
L 565.267362 482.09483 
L 565.513761 485.96058 
L 566.006557 488.771794 
L 566.252956 477.374657 
L 566.992151 490.087439 
L 567.238549 489.411186 
L 567.484948 489.206686 
L 567.731346 490.335385 
L 567.977745 490.101043 
L 568.224143 488.732738 
L 568.470541 489.286994 
L 568.71694 486.776824 
L 568.963338 488.155223 
L 569.209737 487.021697 
L 569.456135 488.665156 
L 569.702534 488.78101 
L 569.948932 489.154464 
L 570.19533 487.144572 
L 570.441729 488.32286 
L 570.934526 488.626538 
L 571.427322 485.436604 
L 571.673721 488.53482 
L 571.920119 489.33395 
L 572.166518 489.35282 
L 572.412916 488.404923 
L 572.659314 488.994287 
L 572.905713 488.34173 
L 573.152111 488.477332 
L 573.39851 487.500472 
L 573.644908 487.309576 
L 573.891307 486.613575 
L 574.137705 485.239125 
L 574.384103 487.17178 
L 574.630502 486.675451 
L 574.8769 489.556003 
L 575.123299 488.772233 
L 575.369697 489.136032 
L 575.616095 490.887885 
L 575.862494 488.496202 
L 576.108892 488.142935 
L 576.355291 486.561792 
L 576.601689 489.005258 
L 576.848087 485.189975 
L 577.094486 490.165553 
L 577.340884 484.56726 
L 577.587283 489.936478 
L 577.833681 489.96588 
L 578.080079 489.518263 
L 578.326478 490.036973 
L 578.572876 477.946028 
L 578.819275 490.029512 
L 579.065673 490.091389 
L 579.312072 489.929896 
L 579.55847 487.469753 
L 579.804868 482.339703 
L 580.051267 489.512997 
L 580.297665 488.449246 
L 580.544064 489.566974 
L 580.790462 489.555564 
L 581.03686 486.390644 
L 581.283259 487.965644 
L 581.529657 486.65307 
L 581.776056 489.018423 
L 582.022454 486.873369 
L 582.268852 489.085566 
L 582.515251 476.110357 
L 582.761649 490.857605 
L 583.008048 489.313763 
L 583.254446 490.504338 
L 583.747243 488.708601 
L 583.993641 490.714982 
L 584.24004 490.957661 
L 584.486438 490.409549 
L 584.732837 488.007772 
L 584.979235 489.084249 
L 585.225633 490.734291 
L 585.472032 488.898181 
L 585.71843 488.096418 
L 585.964829 491.038846 
L 586.211227 489.308936 
L 586.457625 486.421801 
L 586.704024 485.435287 
L 586.950422 488.018743 
L 587.196821 485.04779 
L 587.689617 487.000632 
L 587.936016 482.144858 
L 588.675211 488.772672 
L 588.92161 488.125821 
L 589.168008 491.634354 
L 589.414406 489.314641 
L 589.660805 490.157654 
L 589.907203 488.691925 
L 590.153602 489.673174 
L 590.4 489.763136 
L 590.646398 488.361917 
L 590.892797 468.036123 
L 591.139195 487.054171 
L 591.385594 488.426865 
L 591.631992 489.101803 
L 591.87839 486.053175 
L 592.124789 488.83411 
L 592.371187 485.98691 
L 592.617586 489.124184 
L 592.863984 484.205655 
L 593.110383 489.117601 
L 593.356781 489.421718 
L 593.603179 489.290943 
L 593.849578 488.285997 
L 594.095976 489.740755 
L 594.342375 490.040922 
L 594.588773 490.066814 
L 594.835171 487.814244 
L 595.08157 488.914857 
L 595.327968 488.922317 
L 595.574367 489.931212 
L 595.820765 488.749413 
L 596.067163 489.199225 
L 596.313562 486.024211 
L 596.55996 488.353579 
L 596.806359 487.460538 
L 597.052757 484.719537 
L 597.545554 487.682591 
L 597.791952 488.024009 
L 598.038351 488.59187 
L 598.284749 490.121669 
L 598.531148 489.771913 
L 599.023944 486.858448 
L 599.270343 488.783204 
L 599.516741 487.76641 
L 599.76314 489.728468 
L 600.009538 488.252646 
L 600.255936 490.703572 
L 600.502335 490.076907 
L 600.748733 483.084855 
L 600.995132 489.088199 
L 601.24153 487.705411 
L 601.487928 485.179443 
L 601.734327 489.301914 
L 601.980725 489.035538 
L 602.227124 486.446376 
L 602.473522 488.550619 
L 602.719921 485.318555 
L 602.966319 489.951399 
L 603.212717 489.244865 
L 603.459116 489.609103 
L 603.705514 488.843764 
L 603.951913 490.46572 
L 604.198311 484.750256 
L 604.444709 486.481484 
L 604.691108 490.239717 
L 604.937506 489.011402 
L 605.183905 490.82162 
L 605.430303 489.13296 
L 605.676701 490.11377 
L 605.9231 490.549978 
L 606.169498 486.604798 
L 606.415897 490.614487 
L 606.662295 489.136032 
L 606.908693 491.53342 
L 607.40149 489.179039 
L 607.647889 490.126496 
L 607.894287 483.949811 
L 608.140686 487.242873 
L 608.633482 487.699706 
L 608.879881 488.614689 
L 609.126279 486.688617 
L 609.372678 486.559159 
L 609.619076 488.874922 
L 609.865474 486.715386 
L 610.111873 487.885775 
L 610.358271 487.64529 
L 610.60467 489.736806 
L 610.851068 489.787272 
L 611.343865 488.84552 
L 611.836662 491.202973 
L 612.08306 491.217894 
L 612.329459 490.094022 
L 612.822255 489.91322 
L 613.068654 489.987384 
L 613.315052 487.772554 
L 613.561451 489.06889 
L 613.807849 488.191208 
L 614.054247 487.782208 
L 614.300646 488.606351 
L 615.039841 487.210398 
L 615.286239 489.871969 
L 615.532638 482.086053 
L 615.779036 490.042678 
L 616.025435 489.936039 
L 616.271833 485.561234 
L 616.518231 489.711353 
L 616.76463 488.484354 
L 617.011028 490.503899 
L 617.257427 489.061429 
L 617.503825 489.820185 
L 617.750224 489.760942 
L 617.996622 487.74359 
L 618.24302 490.015031 
L 618.489419 487.822581 
L 618.735817 490.599567 
L 619.228614 488.769161 
L 619.475012 490.206365 
L 619.967809 487.624225 
L 620.214208 487.998557 
L 620.460606 487.86866 
L 620.707004 487.284124 
L 620.953403 487.066897 
L 621.199801 488.762579 
L 621.4462 486.29366 
L 621.692598 487.976176 
L 622.185395 485.376482 
L 622.431793 485.023654 
L 622.678192 485.785043 
L 622.92459 488.564661 
L 623.417387 487.909033 
L 624.156582 489.685022 
L 624.402981 490.032584 
L 624.649379 489.234772 
L 625.142176 490.298522 
L 625.388574 489.188693 
L 625.634973 489.71618 
L 625.881371 487.933169 
L 626.127769 490.036534 
L 626.374168 490.381024 
L 626.620566 490.525403 
L 626.866965 490.536812 
L 627.113363 489.189132 
L 627.359762 490.616243 
L 627.60616 491.077903 
L 627.852558 482.108434 
L 628.098957 489.731539 
L 628.345355 489.205369 
L 628.591754 489.924191 
L 628.838152 489.279094 
L 629.08455 490.264731 
L 629.330949 489.457264 
L 629.577347 489.523968 
L 629.823746 484.757278 
L 630.070144 487.697512 
L 630.316542 488.466361 
L 630.562941 487.446495 
L 630.809339 491.174887 
L 631.055738 488.821822 
L 631.302136 483.993256 
L 631.794933 491.960412 
L 632.041331 489.454631 
L 632.28773 491.690964 
L 632.534128 492.220645 
L 632.780527 491.709395 
L 633.026925 491.636548 
L 633.273323 491.406156 
L 633.519722 489.045192 
L 633.76612 491.960851 
L 634.012519 491.877471 
L 634.751714 492.473417 
L 634.998112 492.232055 
L 635.244511 491.675605 
L 635.490909 491.781804 
L 635.737308 492.217134 
L 635.983706 491.357445 
L 636.230104 492.455864 
L 636.9693 492.474295 
L 637.215698 492.425145 
L 637.462096 492.092503 
L 637.708495 492.397937 
L 637.954893 492.423828 
L 638.201292 492.263213 
L 638.44769 492.464641 
L 639.433284 492.479561 
L 639.679682 492.368973 
L 640.172479 492.48 
L 640.665276 492.48 
L 640.911674 492.085043 
L 641.158073 490.61712 
L 641.404471 487.178802 
L 641.650869 490.163798 
L 641.897268 487.199866 
L 642.143666 470.726656 
L 642.390065 476.59352 
L 642.636463 478.04389 
L 642.882861 458.734451 
L 643.12926 456.858406 
L 643.375658 482.705697 
L 643.622057 473.380327 
L 643.868455 470.085071 
L 644.114853 468.331902 
L 644.361252 486.322623 
L 644.60765 480.238533 
L 644.854049 479.682522 
L 645.100447 486.836067 
L 645.346846 484.921843 
L 645.593244 485.355857 
L 645.839642 485.561673 
L 646.086041 481.581386 
L 646.332439 487.814682 
L 646.578838 480.41012 
L 646.825236 482.811457 
L 647.071634 482.45073 
L 647.318033 480.220102 
L 647.564431 486.558281 
L 647.81083 479.955919 
L 648.057228 485.020143 
L 648.303626 484.24515 
L 648.550025 486.332278 
L 648.796423 481.262349 
L 649.042822 473.438254 
L 649.28922 477.113986 
L 649.535618 478.999685 
L 649.782017 483.38985 
L 650.028415 482.234381 
L 650.274814 483.904171 
L 650.521212 482.873334 
L 650.767611 474.810071 
L 651.014009 479.16425 
L 651.260407 480.714675 
L 651.753204 491.574671 
L 652.246001 490.073396 
L 652.492399 487.969593 
L 652.738798 484.888491 
L 652.985196 487.415337 
L 653.231595 486.499037 
L 653.477993 488.142058 
L 653.724391 485.954436 
L 653.97079 487.843646 
L 654.217188 486.997561 
L 654.463587 490.270875 
L 654.709985 485.953558 
L 654.956384 485.756519 
L 655.44918 491.551413 
L 655.695579 491.326287 
L 655.941977 491.952513 
L 656.188376 491.90468 
L 656.434774 492.213624 
L 656.681172 492.307097 
L 657.173969 492.079777 
L 657.420368 489.793416 
L 657.666766 492.352297 
L 657.913164 492.143409 
L 658.159563 492.162718 
L 658.405961 490.56797 
L 658.65236 489.845199 
L 658.898758 488.669106 
L 659.145156 485.765295 
L 659.391555 487.637391 
L 659.637953 485.082459 
L 659.884352 485.981205 
L 660.13075 488.588798 
L 660.377149 486.782529 
L 660.623547 486.21423 
L 660.869945 486.122073 
L 661.116344 484.391723 
L 661.362742 484.479492 
L 661.609141 489.586283 
L 661.855539 489.645088 
L 662.348336 492.418123 
L 662.594734 492.010001 
L 662.841133 492.350542 
L 663.087531 492.371167 
L 663.333929 491.939787 
L 663.580328 492.354492 
L 663.826726 492.479122 
L 664.073125 492.169301 
L 664.319523 490.069886 
L 664.565922 491.864306 
L 664.81232 479.149769 
L 665.058718 490.87077 
L 665.305117 491.347352 
L 665.551515 487.630808 
L 665.797914 491.861673 
L 666.044312 492.299636 
L 666.29071 490.485468 
L 666.537109 492.363707 
L 666.783507 492.420318 
L 667.029906 492.091187 
L 667.276304 492.437432 
L 667.522702 492.456741 
L 667.769101 492.285155 
L 668.015499 492.454547 
L 668.261898 489.017545 
L 668.508296 491.751085 
L 668.754694 492.394865 
L 669.001093 491.712028 
L 669.247491 492.333427 
L 669.49389 492.474734 
L 669.740288 492.088993 
L 669.986687 492.473856 
L 670.233085 492.099525 
L 670.479483 492.476489 
L 670.725882 492.3817 
L 671.218679 492.479561 
L 673.436264 492.286471 
L 673.682663 492.069684 
L 673.929061 492.007368 
L 674.17546 490.748334 
L 674.421858 488.279415 
L 674.668256 479.507863 
L 674.914655 474.80656 
L 675.161053 480.238094 
L 675.407452 471.517009 
L 675.65385 478.178614 
L 675.900248 477.963582 
L 676.146647 485.817956 
L 676.393045 482.918534 
L 676.639444 485.89607 
L 676.885842 486.470074 
L 677.13224 487.684785 
L 677.378639 490.95415 
L 677.625037 490.996718 
L 677.871436 492.268918 
L 678.117834 491.669022 
L 678.364232 492.039843 
L 678.610631 475.423132 
L 678.857029 491.615483 
L 679.103428 492.400131 
L 679.349826 491.789264 
L 679.596225 485.910991 
L 679.842623 491.468033 
L 680.089021 492.343959 
L 680.33542 492.25663 
L 680.581818 492.332111 
L 681.074615 491.944175 
L 681.321013 491.346913 
L 681.567412 492.303147 
L 681.81381 492.399692 
L 682.060209 492.182905 
L 682.553005 492.444454 
L 682.799404 492.225911 
L 683.045802 492.465518 
L 683.292201 490.648717 
L 683.538599 492.275939 
L 683.784998 492.172373 
L 684.031396 492.470784 
L 684.277794 492.444454 
L 684.524193 492.180272 
L 684.770591 492.474295 
L 685.263388 492.127172 
L 685.509786 492.425584 
L 685.756185 492.322456 
L 686.248982 480.462342 
L 686.49538 460.131721 
L 686.741778 468.539035 
L 686.988177 457.34157 
L 687.234575 464.359075 
L 687.480974 454.262223 
L 687.727372 312.250235 
L 687.97377 303.15833 
L 688.220169 148.785071 
L 688.466567 427.082173 
L 688.712966 491.156017 
L 688.959364 491.04499 
L 689.205763 491.314877 
L 689.452161 491.202534 
L 689.698559 479.203307 
L 689.944958 491.024365 
L 690.191356 490.410426 
L 690.437755 491.199023 
L 690.930551 490.860677 
L 691.17695 491.232375 
L 691.669747 490.657933 
L 691.916145 490.774664 
L 692.162543 491.213944 
L 692.408942 490.847951 
L 693.394536 491.181909 
L 693.640934 490.496878 
L 694.133731 491.697108 
L 694.872926 491.880543 
L 695.119324 492.338693 
L 695.365723 491.479004 
L 695.612121 491.371927 
L 695.85852 490.250688 
L 696.104918 484.196878 
L 696.351316 489.937795 
L 696.597715 489.587161 
L 696.844113 482.006623 
L 697.090512 490.787829 
L 697.33691 491.386408 
L 697.583308 490.277458 
L 698.076105 490.967315 
L 698.322504 490.84049 
L 698.568902 491.589592 
L 699.308097 492.373362 
L 699.554496 492.276378 
L 699.800894 492.339571 
L 700.047293 476.459235 
L 700.293691 492.300514 
L 700.540089 491.855529 
L 700.786488 492.31324 
L 701.279285 492.334305 
L 701.525683 492.34747 
L 701.772081 490.401649 
L 702.01848 491.790581 
L 702.264878 492.146481 
L 702.511277 492.029749 
L 702.757675 491.315755 
L 703.004074 491.561067 
L 703.250472 492.207041 
L 703.49687 492.071 
L 703.743269 492.261018 
L 704.482464 492.317629 
L 704.728862 491.241152 
L 704.975261 492.46113 
L 705.221659 492.300514 
L 705.468058 492.341326 
L 705.714456 485.426071 
L 705.960854 456.586764 
L 706.453651 484.529958 
L 706.70005 484.364954 
L 706.946448 483.214313 
L 707.192846 486.315602 
L 707.439245 485.580543 
L 707.685643 488.780132 
L 708.17844 491.380704 
L 708.424839 491.727388 
L 708.671237 491.500068 
L 708.917635 491.06035 
L 709.164034 490.902806 
L 709.656831 491.971822 
L 709.903229 492.257508 
L 710.149627 492.258824 
L 710.642424 491.676043 
L 710.888823 492.19607 
L 711.135221 491.876155 
L 711.381619 492.07495 
L 711.874416 492.171934 
L 712.120815 492.268479 
L 712.367213 492.195192 
L 712.613612 491.699302 
L 712.86001 492.174567 
L 713.106408 492.345715 
L 713.352807 492.184221 
L 713.599205 492.363268 
L 713.845604 492.200897 
L 714.3384 492.390476 
L 715.570392 492.385649 
L 715.816791 488.712551 
L 716.063189 455.401893 
L 716.555986 486.186144 
L 716.802385 489.426545 
L 717.295181 486.311652 
L 717.54158 487.051977 
L 717.787978 485.582738 
L 718.034377 485.888171 
L 718.280775 487.03574 
L 718.527173 487.058559 
L 718.773572 490.43544 
L 719.01997 490.109381 
L 719.266369 490.972581 
L 719.759165 491.548341 
L 720.005564 487.076552 
L 720.744759 492.043792 
L 721.483954 491.754596 
L 721.730353 491.976211 
L 722.22315 491.828321 
L 722.469548 491.852896 
L 722.715946 491.634792 
L 722.962345 491.904241 
L 723.455142 492.044231 
L 723.70154 491.797602 
L 723.947938 491.38948 
L 724.440735 491.939348 
L 724.687134 491.918284 
L 725.17993 492.32465 
L 725.426329 491.992448 
L 725.672727 492.455425 
L 725.919126 492.166668 
L 726.165524 492.424706 
L 726.411923 492.436994 
L 726.658321 492.316751 
L 726.904719 492.444015 
L 727.643915 492.065295 
L 728.136711 492.323334 
L 728.38311 492.096892 
L 728.875907 492.300953 
L 729.122305 491.977088 
L 729.368703 492.282522 
L 729.615102 491.885371 
L 729.8615 492.291737 
L 730.847094 491.875716 
L 731.339891 491.109939 
L 731.586289 491.730899 
L 732.079086 491.903802 
L 732.325484 490.877792 
L 732.818281 491.036213 
L 733.06468 491.062544 
L 733.557476 491.675605 
L 733.803875 491.454868 
L 734.050273 483.348598 
L 734.296672 491.319705 
L 734.54307 491.342963 
L 734.789468 490.921237 
L 735.035867 491.038846 
L 735.282265 490.338456 
L 735.528664 491.001984 
L 735.775062 489.986506 
L 736.021461 489.683706 
L 736.267859 479.02426 
L 736.514257 490.585524 
L 736.760656 491.485587 
L 737.007054 491.421955 
L 737.253453 491.862551 
L 737.499851 491.241152 
L 737.746249 491.558873 
L 738.239046 490.145805 
L 738.485445 490.411743 
L 738.731843 488.65594 
L 738.978241 489.151831 
L 739.22464 488.169705 
L 739.471038 486.657459 
L 739.717437 487.73613 
L 739.963835 487.254283 
L 740.456632 483.741361 
L 740.949429 472.1564 
L 741.195827 472.124804 
L 741.442226 467.701287 
L 741.688624 467.614836 
L 741.935022 481.774915 
L 742.181421 481.158344 
L 742.427819 484.173181 
L 742.674218 484.626503 
L 742.920616 484.644057 
L 743.167014 480.449177 
L 743.413413 479.279666 
L 743.659811 484.870499 
L 744.152608 489.100047 
L 744.399006 489.624901 
L 744.645405 487.080063 
L 744.891803 488.963129 
L 745.138202 483.001475 
L 745.3846 481.122797 
L 745.630999 478.071098 
L 745.877397 478.468688 
L 746.123795 479.079554 
L 746.616592 485.356296 
L 746.862991 486.140065 
L 747.109389 488.48567 
L 747.355787 485.956191 
L 747.602186 490.79134 
L 748.094983 491.582132 
L 748.341381 491.879227 
L 748.587779 491.283281 
L 748.834178 474.941284 
L 749.080576 491.827882 
L 749.326975 492.035454 
L 749.573373 491.989376 
L 749.819771 491.585203 
L 750.06617 491.777416 
L 750.312568 491.739237 
L 750.558967 491.133197 
L 750.805365 491.941542 
L 751.298162 492.265407 
L 751.54456 492.031066 
L 751.790959 492.062223 
L 752.037357 483.693527 
L 752.283756 492.055202 
L 752.530154 492.189048 
L 753.515748 491.949441 
L 754.008544 492.344837 
L 754.254943 492.065734 
L 754.501341 492.058713 
L 754.74774 492.172811 
L 754.994138 492.152186 
L 755.240537 491.779171 
L 755.733333 492.335621 
L 755.979732 492.120589 
L 756.472529 491.99157 
L 756.718927 490.770276 
L 757.211724 490.946251 
L 757.458122 490.435879 
L 757.704521 490.663199 
L 757.950919 491.184103 
L 758.197317 489.854415 
L 758.443716 490.10982 
L 758.936513 488.434326 
L 759.182911 486.542483 
L 759.429309 487.769043 
L 759.922106 488.325932 
L 760.168505 487.541723 
L 760.661302 490.984869 
L 760.9077 491.17006 
L 761.154098 491.731776 
L 761.400497 491.766884 
L 761.646895 491.324532 
L 761.893294 489.788589 
L 762.139692 491.436436 
L 762.38609 491.410545 
L 762.632489 489.599448 
L 762.878887 491.649274 
L 763.125286 492.051252 
L 763.618082 491.758107 
L 764.110879 491.638742 
L 764.357278 492.230738 
L 764.603676 474.103098 
L 764.850075 491.398696 
L 765.096473 491.485587 
L 765.342871 492.057396 
L 765.835668 492.030188 
L 766.082067 492.13156 
L 766.328465 491.823055 
L 766.574863 492.267162 
L 766.821262 492.102597 
L 767.06766 491.748891 
L 767.560457 491.849824 
L 767.806855 491.249051 
L 768.299652 491.996397 
L 768.792449 491.890198 
L 769.038847 492.10128 
L 769.285246 491.74187 
L 769.531644 491.63567 
L 769.778043 492.129805 
L 770.024441 492.008246 
L 770.27084 492.127172 
L 770.517238 491.966556 
L 771.010035 489.454631 
L 771.256433 491.108622 
L 771.502832 490.824692 
L 771.74923 490.154143 
L 771.995628 490.431491 
L 772.242027 491.522449 
L 772.488425 489.784639 
L 772.734824 483.784368 
L 772.981222 482.731149 
L 773.22762 489.20142 
L 773.474019 489.192204 
L 773.720417 491.428976 
L 773.966816 491.329359 
L 774.459613 491.326726 
L 774.706011 491.924866 
L 775.198808 491.362711 
L 775.445206 491.689209 
L 775.691605 488.500152 
L 775.938003 491.811206 
L 776.4308 492.049058 
L 776.677198 491.985865 
L 776.923597 491.713345 
L 777.169995 491.892831 
L 777.416393 491.256512 
L 777.662792 491.913895 
L 777.90919 491.937593 
L 778.155589 491.719928 
L 778.648385 491.87045 
L 778.894784 491.456184 
L 779.141182 491.654101 
L 779.387581 491.390797 
L 779.633979 474.462509 
L 779.880378 490.817232 
L 780.126776 490.522331 
L 780.373174 490.948006 
L 780.619573 490.900612 
L 781.11237 489.903126 
L 781.358768 490.519698 
L 781.605166 490.77642 
L 781.851565 490.650033 
L 782.097963 490.26122 
L 782.344362 490.365226 
L 782.59076 489.876796 
L 782.837158 490.089195 
L 783.083557 488.853419 
L 783.329955 490.51136 
L 783.576354 490.790463 
L 783.822752 490.604394 
L 784.315549 491.62821 
L 784.561947 491.361833 
L 784.808346 488.950841 
L 785.054744 490.726392 
L 785.301143 490.498633 
L 785.547541 491.396502 
L 785.793939 491.490414 
L 786.040338 490.622386 
L 786.286736 491.541319 
L 786.533135 490.22348 
L 786.779533 491.460573 
L 787.27233 491.256512 
L 787.518728 490.585963 
L 787.765127 490.686896 
L 788.011525 491.350862 
L 788.257923 491.088874 
L 788.504322 489.938233 
L 788.75072 483.436806 
L 788.997119 490.895784 
L 789.243517 491.390797 
L 789.489916 491.599685 
L 789.736314 491.494363 
L 789.982712 490.028196 
L 790.229111 490.933086 
L 790.475509 490.592545 
L 790.721908 490.865065 
L 790.968306 490.225674 
L 791.214704 491.077464 
L 791.461103 491.269677 
L 791.707501 490.055843 
L 791.9539 491.073954 
L 792.200298 491.201218 
L 792.446696 491.457062 
L 792.693095 490.546906 
L 792.939493 490.183984 
L 793.185892 491.181909 
L 793.43229 490.603955 
L 793.678689 491.603196 
L 793.925087 490.026441 
L 794.417884 491.492608 
L 794.664282 491.13978 
L 794.910681 491.097651 
L 795.157079 491.294691 
L 795.403477 490.93923 
L 795.649876 491.508845 
L 795.896274 490.934841 
L 796.142673 490.901489 
L 796.389071 491.787509 
L 796.635469 490.754039 
L 796.881868 490.502583 
L 797.128266 491.228426 
L 797.374665 488.626538 
L 797.621063 487.949845 
L 798.11386 489.429178 
L 798.360258 489.74646 
L 798.606657 483.55617 
L 798.853055 484.197317 
L 799.099454 471.246683 
L 799.345852 486.21774 
L 799.59225 469.909974 
L 799.838649 466.574344 
L 800.085047 475.274365 
L 800.331446 460.00709 
L 800.577844 483.93884 
L 800.824242 487.186262 
L 801.070641 479.305996 
L 801.317039 491.176204 
L 801.563438 490.574553 
L 801.809836 491.294691 
L 802.056234 490.369175 
L 802.302633 490.252444 
L 802.549031 491.738359 
L 803.041828 490.516626 
L 803.288227 491.570722 
L 803.534625 491.2609 
L 803.781023 491.608901 
L 804.027422 491.38202 
L 804.27382 491.450479 
L 804.520219 491.188052 
L 804.766617 491.204728 
L 805.505812 490.293256 
L 805.752211 491.438192 
L 805.998609 490.717176 
L 806.245007 491.478565 
L 806.491406 486.278739 
L 806.737804 491.134075 
L 806.984203 491.783121 
L 807.230601 491.876155 
L 807.477 491.285036 
L 807.723398 490.985308 
L 807.969796 491.087997 
L 808.216195 490.126496 
L 808.462593 489.930334 
L 808.708992 490.349866 
L 808.95539 487.310454 
L 809.201788 489.635433 
L 809.448187 487.817315 
L 809.694585 483.517552 
L 810.187382 490.004937 
L 810.43378 486.597777 
L 810.680179 489.280411 
L 810.926577 486.168151 
L 811.419374 490.542517 
L 811.912171 482.707452 
L 812.158569 489.429178 
L 812.404968 482.637676 
L 812.651366 482.096147 
L 812.897765 482.687704 
L 813.144163 487.276663 
L 813.390561 472.135775 
L 813.63696 465.706317 
L 813.883358 479.307751 
L 814.129757 484.181957 
L 814.376155 485.402374 
L 814.622553 473.626078 
L 814.868952 489.925946 
L 815.361749 486.183511 
L 815.608147 489.732856 
L 815.854545 488.336903 
L 816.593741 491.486025 
L 816.840139 490.883497 
L 817.086538 491.475932 
L 817.579334 491.70369 
L 817.825733 491.301712 
L 818.072131 491.477249 
L 818.564928 491.454429 
L 819.057725 490.62107 
L 819.304123 491.396063 
L 819.550522 490.547345 
L 819.79692 490.952395 
L 820.043318 490.402966 
L 820.289717 491.697986 
L 820.536115 491.416688 
L 820.782514 489.54942 
L 821.27531 488.730104 
L 821.521709 491.566333 
L 821.768107 491.496558 
L 822.014506 491.551413 
L 822.260904 491.074393 
L 822.507303 491.333748 
L 822.753701 491.269238 
L 823.246498 490.076468 
L 823.492896 491.596613 
L 823.985693 491.966995 
L 824.232091 489.86012 
L 824.47849 490.790024 
L 824.724888 490.84049 
L 824.971287 489.935162 
L 825.217685 476.841466 
L 825.464083 477.979819 
L 825.710482 486.402492 
L 825.95688 486.696955 
L 826.203279 486.72899 
L 826.449677 478.984326 
L 826.696076 477.369391 
L 826.942474 485.153551 
L 827.188872 468.09405 
L 827.435271 488.131525 
L 827.681669 488.06175 
L 827.928068 483.60532 
L 828.174466 491.059033 
L 828.420864 491.433364 
L 828.667263 490.367859 
L 828.913661 491.573355 
L 829.406458 489.666591 
L 829.652856 490.958977 
L 829.899255 491.43512 
L 830.392052 491.087558 
L 830.63845 490.055843 
L 831.131247 491.958657 
L 831.377645 491.45399 
L 831.870442 491.698863 
L 832.116841 490.992329 
L 832.609637 491.759423 
L 832.856036 491.473299 
L 833.102434 491.370171 
L 833.348833 491.73046 
L 833.841629 491.957779 
L 834.088028 491.403084 
L 834.334426 491.674727 
L 834.580825 491.672094 
L 834.827223 491.846314 
L 835.32002 490.808016 
L 835.566418 489.507292 
L 835.812817 491.050695 
L 836.059215 488.603718 
L 836.305614 491.48032 
L 836.552012 490.807577 
L 837.044809 491.501385 
L 837.291207 485.440553 
L 837.537606 490.105432 
L 837.784004 491.493486 
L 838.030402 491.406595 
L 838.276801 489.869335 
L 838.523199 490.775103 
L 838.769598 489.52309 
L 839.015996 491.513233 
L 839.262394 491.564139 
L 839.508793 491.830515 
L 839.755191 490.962488 
L 840.00159 490.853656 
L 840.247988 491.053328 
L 840.494386 489.281728 
L 840.987183 491.391236 
L 841.233582 491.138025 
L 841.47998 491.262655 
L 841.726379 490.012836 
L 841.972777 491.859479 
L 842.219175 491.825688 
L 842.465574 491.434242 
L 842.711972 491.539564 
L 842.958371 491.891953 
L 843.204769 491.679554 
L 843.451167 491.635231 
L 843.697566 491.261339 
L 843.943964 491.551851 
L 844.190363 490.862432 
L 844.436761 490.896223 
L 844.683159 491.899852 
L 844.929558 491.532981 
L 845.175956 491.501824 
L 845.422355 491.662001 
L 845.668753 490.734291 
L 845.915152 490.282285 
L 846.16155 491.519816 
L 846.407948 491.640497 
L 846.654347 489.62139 
L 846.900745 492.042037 
L 847.147144 490.614926 
L 847.393542 470.285621 
L 847.63994 470.599831 
L 847.886339 483.568019 
L 848.132737 463.344036 
L 848.379136 468.710183 
L 848.625534 457.185782 
L 848.871932 488.813484 
L 849.118331 489.42479 
L 849.364729 490.445534 
L 849.611128 490.938791 
L 849.857526 492.143409 
L 850.350323 491.455745 
L 850.596721 490.972581 
L 850.84312 489.298403 
L 851.089518 491.83622 
L 851.335917 492.187293 
L 851.582315 487.180118 
L 851.828713 491.971822 
L 852.075112 492.166668 
L 852.32151 491.93847 
L 852.567909 492.184221 
L 852.814307 492.070561 
L 853.307104 491.672533 
L 853.553502 490.370931 
L 853.799901 492.043792 
L 854.046299 491.429415 
L 854.292697 491.437753 
L 854.539096 491.148996 
L 855.031893 492.017462 
L 855.278291 491.580376 
L 855.52469 491.766884 
L 855.771088 491.5185 
L 856.017486 491.599685 
L 856.263885 476.051552 
L 856.510283 491.179276 
L 856.756682 490.986624 
L 857.249478 492.030188 
L 857.495877 491.970506 
L 857.742275 492.065734 
L 858.235072 491.635231 
L 858.48147 490.949762 
L 858.974267 492.008685 
L 859.220666 491.974016 
L 859.467064 482.351991 
L 859.713462 491.887126 
L 859.959861 491.458378 
L 860.206259 492.004296 
L 860.452658 491.849386 
L 860.699056 490.017664 
L 860.945455 491.432926 
L 861.191853 491.571599 
L 861.438251 492.052569 
L 861.68465 491.042357 
L 861.931048 491.38948 
L 862.177447 482.447658 
L 862.423845 490.759744 
L 862.670243 491.641375 
L 862.916642 491.862112 
L 863.16304 491.895025 
L 863.409439 491.573355 
L 863.902235 492.019656 
L 864.395032 491.125298 
L 864.641431 491.787948 
L 864.887829 491.990254 
L 865.134228 490.654422 
L 865.380626 491.929255 
L 865.627024 490.211193 
L 865.873423 491.214383 
L 866.36622 490.696551 
L 866.612618 491.172254 
L 866.859016 490.143172 
L 867.351813 491.543952 
L 867.598212 491.786631 
L 867.84461 491.851141 
L 868.091008 491.753718 
L 868.583805 490.692601 
L 868.830204 490.700939 
L 869.076602 489.44366 
L 869.323 491.439069 
L 869.569399 489.983434 
L 869.815797 489.801754 
L 870.308594 490.974776 
L 870.554993 488.620833 
L 870.801391 491.42766 
L 871.047789 490.071641 
L 871.294188 491.065177 
L 871.540586 490.36742 
L 871.786985 491.107306 
L 872.033383 490.968632 
L 872.279781 488.654624 
L 872.52618 488.789787 
L 872.772578 489.765769 
L 873.018977 485.05569 
L 873.265375 484.213993 
L 873.758172 478.991786 
L 874.00457 468.46882 
L 874.250969 477.872742 
L 874.497367 477.873619 
L 874.743766 477.406693 
L 874.990164 488.463728 
L 875.236562 485.944342 
L 875.482961 490.279213 
L 875.729359 489.125939 
L 875.975758 490.531108 
L 876.222156 490.210754 
L 876.468554 485.860524 
L 876.714953 491.784437 
L 876.961351 491.907751 
L 877.454148 491.809012 
L 877.700546 491.981477 
L 877.946945 491.069565 
L 878.193343 491.777855 
L 878.439742 491.62426 
L 878.68614 492.025361 
L 878.932538 492.074511 
L 879.425335 491.77566 
L 879.671734 488.754241 
L 879.918132 491.747136 
L 880.410929 490.774225 
L 880.657327 491.99552 
L 880.903726 491.188491 
L 881.150124 490.803189 
L 881.396523 490.665393 
L 881.642921 487.215665 
L 881.889319 491.90073 
L 882.135718 491.479004 
L 882.382116 491.480759 
L 882.628515 490.971704 
L 882.874913 483.478495 
L 883.121311 491.331553 
L 883.36771 491.558434 
L 883.614108 491.618994 
L 883.860507 491.390358 
L 884.353304 490.153266 
L 884.599702 490.890957 
L 884.8461 489.709597 
L 885.092499 491.026998 
L 885.338897 491.433364 
L 885.585296 491.28372 
L 885.831694 490.480641 
L 886.078092 490.718493 
L 886.324491 490.721565 
L 886.570889 489.45507 
L 886.817288 489.775424 
L 887.063686 491.407034 
L 887.310084 490.648717 
L 887.556483 490.315198 
L 887.802881 490.871648 
L 888.04928 491.717295 
L 888.295678 489.453314 
L 888.788475 491.86299 
L 889.034873 491.77215 
L 889.281272 490.202855 
L 889.774069 492.031505 
L 890.020467 490.906317 
L 890.266865 490.57938 
L 890.513264 490.582013 
L 890.759662 490.840052 
L 891.006061 488.562467 
L 891.252459 490.884374 
L 891.498857 490.939668 
L 891.745256 490.123424 
L 891.991654 490.528913 
L 892.238053 491.194196 
L 892.484451 490.374441 
L 892.977248 491.716856 
L 893.470045 490.607905 
L 893.716443 491.111694 
L 893.962842 489.813164 
L 894.20924 490.380585 
L 894.455638 490.659249 
L 894.702037 491.558434 
L 894.948435 491.029192 
L 895.194834 490.005815 
L 895.441232 491.24203 
L 895.68763 491.218332 
L 895.934029 491.740553 
L 896.180427 465.632152 
L 896.426826 491.315316 
L 896.673224 491.145924 
L 897.166021 491.728266 
L 897.412419 479.488554 
L 897.658818 492.092065 
L 897.905216 491.99903 
L 898.151615 492.321578 
L 898.398013 492.073633 
L 898.644411 492.048619 
L 898.89081 492.387843 
L 899.383607 492.410663 
L 899.630005 492.233371 
L 899.876403 485.209284 
L 900.122802 492.175444 
L 900.3692 492.220645 
L 900.615599 492.017462 
L 900.861997 492.149553 
L 901.108395 492.437432 
L 901.354794 492.218451 
L 901.601192 492.275061 
L 901.847591 492.024483 
L 902.093989 492.043353 
L 902.340387 492.332988 
L 902.586786 487.923515 
L 902.833184 492.23776 
L 903.079583 491.956902 
L 903.325981 492.263213 
L 903.57238 491.91214 
L 904.065176 492.007368 
L 904.311575 491.617239 
L 904.557973 492.181588 
L 904.804372 491.603196 
L 905.05077 491.879666 
L 905.543567 492.093381 
L 905.789965 491.132758 
L 906.036364 492.067928 
L 906.282762 491.204289 
L 906.52916 491.124859 
L 906.775559 491.938909 
L 907.021957 491.882299 
L 907.268356 492.23381 
L 907.514754 491.937154 
L 907.761153 492.039843 
L 908.007551 491.518938 
L 908.500348 492.246975 
L 908.746746 491.715978 
L 908.993145 492.136826 
L 909.239543 491.982793 
L 909.485941 492.33606 
L 909.73234 490.930453 
L 909.978738 491.282403 
L 910.225137 491.237641 
L 910.471535 491.599685 
L 910.717933 490.937474 
L 910.964332 491.91214 
L 911.21073 491.177959 
L 911.457129 491.674288 
L 911.949925 491.058155 
L 912.196324 490.853217 
L 912.442722 477.844217 
L 912.689121 490.957222 
L 913.181918 490.806261 
L 913.428316 491.967873 
L 913.674714 489.305864 
L 913.921113 490.153704 
L 914.167511 492.085482 
L 914.41391 490.0949 
L 914.660308 491.663317 
L 915.153105 490.317831 
L 915.399503 491.438631 
L 915.645902 490.607027 
L 915.8923 490.291939 
L 916.138698 491.990692 
L 916.385097 491.102478 
L 916.631495 491.93101 
L 916.877894 491.941542 
L 917.124292 491.500946 
L 917.617089 486.703537 
L 917.863487 491.449163 
L 918.109886 491.080975 
L 918.356284 491.762495 
L 918.602683 490.539007 
L 918.849081 487.030474 
L 919.095479 491.642253 
L 919.341878 491.221404 
L 919.588276 491.520255 
L 919.834675 490.366103 
L 920.081073 490.35996 
L 920.327471 491.529471 
L 920.820268 491.802868 
L 921.066667 491.200779 
L 921.313065 492.13551 
L 921.559463 489.982556 
L 921.805862 490.896223 
L 922.05226 491.121349 
L 922.298659 491.915212 
L 922.545057 492.049936 
L 922.791456 491.364905 
L 923.037854 478.733748 
L 923.284252 490.447728 
L 923.530651 487.360482 
L 923.777049 491.180592 
L 924.023448 491.653224 
L 924.269846 490.941424 
L 924.516244 484.386457 
L 925.25544 491.876594 
L 925.501838 486.046592 
L 925.748236 491.895025 
L 925.994635 491.084925 
L 926.241033 491.342086 
L 926.487432 491.784437 
L 926.73383 490.959855 
L 926.980229 492.268479 
L 927.226627 490.182229 
L 927.473025 491.694036 
L 927.719424 491.692281 
L 928.212221 490.522331 
L 928.458619 490.764132 
L 928.705017 490.718054 
L 928.951416 491.638742 
L 929.197814 491.95734 
L 929.444213 490.072519 
L 929.690611 490.725953 
L 929.937009 490.56051 
L 930.676205 492.203969 
L 930.922603 491.379826 
L 931.169001 491.489097 
L 931.4154 491.943736 
L 931.661798 491.37807 
L 931.908197 491.481198 
L 932.154595 492.067051 
L 932.400994 492.1772 
L 932.647392 491.885809 
L 932.89379 492.118395 
L 933.140189 492.099525 
L 933.386587 488.425988 
L 933.632986 491.289425 
L 933.879384 492.022289 
L 934.125782 491.766006 
L 934.372181 492.069684 
L 934.618579 491.335503 
L 934.864978 492.170178 
L 935.111376 492.261018 
L 935.357774 491.915651 
L 935.604173 491.895025 
L 935.850571 484.949929 
L 936.09697 482.355063 
L 936.343368 474.439689 
L 936.589767 488.203057 
L 936.836165 490.687774 
L 937.082563 482.341459 
L 937.328962 483.934451 
L 937.57536 483.989306 
L 937.821759 480.914348 
L 938.068157 481.1522 
L 938.314555 475.688192 
L 938.560954 491.803307 
L 938.807352 464.646077 
L 939.053751 466.555474 
L 939.300149 490.610977 
L 939.546547 444.556818 
L 939.792946 484.178885 
L 940.039344 484.317559 
L 940.285743 444.047763 
L 940.532141 462.874476 
L 940.778539 452.543722 
L 941.024938 490.099288 
L 941.271336 486.920325 
L 941.517735 490.137906 
L 941.764133 490.37488 
L 942.010532 484.538735 
L 942.25693 489.154902 
L 942.503328 486.696955 
L 942.749727 488.074037 
L 942.996125 477.215358 
L 943.242524 489.452875 
L 943.488922 487.478091 
L 943.73532 487.337662 
L 943.981719 482.598619 
L 944.228117 488.868339 
L 944.474516 486.05888 
L 944.720914 486.665797 
L 944.967312 487.736569 
L 945.213711 487.882703 
L 945.460109 492.100841 
L 945.952906 490.247177 
L 946.199305 491.312244 
L 946.445703 486.135677 
L 946.692101 487.560593 
L 946.9385 490.169064 
L 947.184898 490.978725 
L 947.677695 489.911025 
L 948.170492 491.485587 
L 948.41689 490.087878 
L 948.663289 491.807696 
L 948.909687 491.666828 
L 949.156085 488.954352 
L 949.402484 489.562586 
L 949.648882 485.30934 
L 949.895281 484.67697 
L 950.141679 489.502464 
L 950.388077 489.1255 
L 950.634476 490.336701 
L 950.880874 483.815086 
L 951.127273 486.779896 
L 951.373671 491.843242 
L 951.62007 491.462328 
L 951.866468 491.593541 
L 952.112866 491.430293 
L 952.359265 490.76106 
L 952.605663 491.814278 
L 952.852062 491.386408 
L 953.09846 487.820387 
L 953.344858 492.177639 
L 953.591257 492.152186 
L 954.330452 491.263094 
L 954.57685 491.330237 
L 954.823249 491.911262 
L 955.069647 492.190365 
L 956.055241 492.456303 
L 956.301639 492.127611 
L 956.548038 492.292176 
L 956.794436 490.57938 
L 957.040835 490.444656 
L 957.287233 492.374239 
L 957.533631 491.89327 
L 957.78003 492.172373 
L 958.026428 491.819983 
L 958.272827 491.914773 
L 958.519225 491.357445 
L 958.765623 492.41549 
L 959.012022 492.376872 
L 959.25842 492.217573 
L 959.751217 492.415052 
L 960.244014 492.328161 
L 960.490412 485.535343 
L 960.736811 491.527715 
L 960.983209 491.349107 
L 961.229608 492.171495 
L 961.722404 492.25268 
L 961.968803 492.470346 
L 962.215201 490.852778 
L 962.707998 492.236004 
L 963.200795 492.478245 
L 963.447193 492.316312 
L 963.693592 492.458497 
L 963.93999 492.329478 
L 964.186388 490.689968 
L 964.432787 492.241271 
L 964.679185 492.023605 
L 964.925584 492.322017 
L 965.171982 492.423828 
L 965.418381 492.296126 
L 965.664779 492.470346 
L 966.650373 492.478245 
L 966.896771 492.239954 
L 967.143169 492.479561 
L 967.389568 492.010879 
L 967.635966 492.385649 
L 967.882365 492.058713 
L 968.128763 492.388721 
L 968.375161 492.26058 
L 968.62156 492.48 
L 968.867958 492.223278 
L 969.114357 491.726949 
L 969.360755 492.340887 
L 969.607154 492.127611 
L 969.853552 492.447965 
L 970.09995 492.420756 
L 970.346349 492.258824 
L 970.592747 492.46859 
L 971.824739 492.448403 
L 972.563934 492.48 
L 972.810333 488.009967 
L 973.056731 491.486025 
L 973.30313 492.39311 
L 973.549528 492.244781 
L 973.795926 492.463763 
L 974.535122 492.445332 
L 974.78152 492.475612 
L 975.027919 492.355369 
L 975.520715 492.439188 
L 976.013512 492.46859 
L 979.216692 492.451914 
L 980.202285 492.48 
L 984.14466 492.406714 
L 984.391058 492.203969 
L 984.637457 492.48 
L 994.493393 492.425584 
L 994.739791 464.162474 
L 994.98619 141.342768 
L 995.232588 461.274023 
L 995.478987 140.010008 
L 995.725385 419.204101 
L 995.971783 119.272581 
L 996.218182 472.883998 
L 996.218182 472.883998 
" clip-path="url(#pd279ace8c6)" style="fill: none; stroke: #1f77b4; stroke-width: 1.5; stroke-linecap: square"/>
   </g>
   <g id="patch_3">
    <path d="M 144 512.64 
L 144 69.12 
" style="fill: none; stroke: #000000; stroke-width: 0.8; stroke-linejoin: miter; stroke-linecap: square"/>
   </g>
   <g id="patch_4">
    <path d="M 1036.8 512.64 
L 1036.8 69.12 
" style="fill: none; stroke: #000000; stroke-width: 0.8; stroke-linejoin: miter; stroke-linecap: square"/>
   </g>
   <g id="patch_5">
    <path d="M 144 512.64 
L 1036.8 512.64 
" style="fill: none; stroke: #000000; stroke-width: 0.8; stroke-linejoin: miter; stroke-linecap: square"/>
   </g>
   <g id="patch_6">
    <path d="M 144 69.12 
L 1036.8 69.12 
" style="fill: none; stroke: #000000; stroke-width: 0.8; stroke-linejoin: miter; stroke-linecap: square"/>
   </g>
   <g id="text_19">
    <!-- Histogram Differences -->
    <g transform="translate(523.2225 63.12) scale(0.12 -0.12)">
     <defs>
      <path id="DejaVuSans-44" d="M 1259 4147 
L 1259 519 
L 2022 519 
Q 2988 519 3436 956 
Q 3884 1394 3884 2338 
Q 3884 3275 3436 3711 
Q 2988 4147 2022 4147 
L 1259 4147 
z
M 628 4666 
L 1925 4666 
Q 3281 4666 3915 4102 
Q 4550 3538 4550 2338 
Q 4550 1131 3912 565 
Q 3275 0 1925 0 
L 628 0 
L 628 4666 
z
" transform="scale(0.015625)"/>
     </defs>
     <use xlink:href="#DejaVuSans-48"/>
     <use xlink:href="#DejaVuSans-69" x="75.195312"/>
     <use xlink:href="#DejaVuSans-73" x="102.978516"/>
     <use xlink:href="#DejaVuSans-74" x="155.078125"/>
     <use xlink:href="#DejaVuSans-6f" x="194.287109"/>
     <use xlink:href="#DejaVuSans-67" x="255.46875"/>
     <use xlink:href="#DejaVuSans-72" x="318.945312"/>
     <use xlink:href="#DejaVuSans-61" x="360.058594"/>
     <use xlink:href="#DejaVuSans-6d" x="421.337891"/>
     <use xlink:href="#DejaVuSans-20" x="518.75"/>
     <use xlink:href="#DejaVuSans-44" x="550.537109"/>
     <use xlink:href="#DejaVuSans-69" x="627.539062"/>
     <use xlink:href="#DejaVuSans-66" x="655.322266"/>
     <use xlink:href="#DejaVuSans-66" x="690.527344"/>
     <use xlink:href="#DejaVuSans-65" x="725.732422"/>
     <use xlink:href="#DejaVuSans-72" x="787.255859"/>
     <use xlink:href="#DejaVuSans-65" x="826.119141"/>
     <use xlink:href="#DejaVuSans-6e" x="887.642578"/>
     <use xlink:href="#DejaVuSans-63" x="951.021484"/>
     <use xlink:href="#DejaVuSans-65" x="1006.001953"/>
     <use xlink:href="#DejaVuSans-73" x="1067.525391"/>
    </g>
   </g>
  </g>
 </g>
 <defs>
  <clipPath id="pd279ace8c6">
   <rect x="144" y="69.12" width="892.8" height="443.52"/>
  </clipPath>
 </defs>
</svg>
